<?xml version="1.0" encoding="UTF-8" standalone="no"?>
<svg
   xmlns:dc="http://purl.org/dc/elements/1.1/"
   xmlns:cc="http://creativecommons.org/ns#"
   xmlns:rdf="http://www.w3.org/1999/02/22-rdf-syntax-ns#"
   xmlns:svg="http://www.w3.org/2000/svg"
   xmlns="http://www.w3.org/2000/svg"
   xmlns:sodipodi="http://sodipodi.sourceforge.net/DTD/sodipodi-0.dtd"
   xmlns:inkscape="http://www.inkscape.org/namespaces/inkscape"
   width="20"
   height="20"
   viewBox="0 0 5.2916665 5.2916665"
   version="1.1"
   id="svg2702"
   inkscape:version="1.0.2-2 (e86c870879, 2021-01-15)"
   sodipodi:docname="apps.svg">
  <defs
     id="defs2696" />
  <sodipodi:namedview
     id="base"
     pagecolor="#ffffff"
     bordercolor="#666666"
     borderopacity="1.0"
     inkscape:pageopacity="0.0"
     inkscape:pageshadow="2"
     inkscape:zoom="32.35"
     inkscape:cx="10"
     inkscape:cy="10"
     inkscape:document-units="px"
     inkscape:current-layer="layer1"
     inkscape:document-rotation="0"
     showgrid="false"
     units="px"
     inkscape:window-width="1600"
     inkscape:window-height="837"
     inkscape:window-x="-8"
     inkscape:window-y="-8"
     inkscape:window-maximized="1" />
  <metadata
     id="metadata2699">
    <rdf:RDF>
      <cc:Work
         rdf:about="">
        <dc:format>image/svg+xml</dc:format>
        <dc:type
           rdf:resource="http://purl.org/dc/dcmitype/StillImage" />
        <dc:title></dc:title>
      </cc:Work>
    </rdf:RDF>
  </metadata>
  <g
     inkscape:label="Layer 1"
     inkscape:groupmode="layer"
     id="layer1">
    <path
       style="fill:#280b0b;stroke-width:0.0154156"
       d="M 0.0309341,5.1886084 V 5.1153319 L 0.60543982,4.5413707 1.1799452,3.9674101 h 0.073173 c 0.069575,0 0.073173,0.00208 0.073173,0.042451 0,0.03534 -0.1014583,0.1438162 -0.60534286,0.6472375 -0.50280596,0.502342 -0.61251505,0.6047854 -0.6476789,0.6047854 -0.04023111,0 -0.04233504,-0.00364 -0.04233534,-0.073276 z M 0.75579714,4.6992308 1.3185814,4.1365764 1.3231921,4.2476441 1.3278028,4.3587105 0.87610762,4.8102977 0.42440749,5.261885 H 0.30873098 0.19305614 Z m 0.15423977,0.154074 0.40854499,-0.4085797 0.00461,0.1110494 0.00461,0.1110494 L 1.0303659,4.964354 0.73292599,5.2618847 H 0.61723001 0.5015342 Z M 1.0643116,5.0073426 1.3185819,4.7528011 1.3231919,4.8637714 1.3278019,4.9747431 1.1847359,5.1183142 1.041665,5.2618853 H 0.92587618 0.81008966 Z M 1.218345,5.1617171 c 0.054637,-0.055095 0.1012802,-0.100168 0.1036455,-0.100168 0.00236,0 0.00433,0.045079 0.00433,0.100168 v 0.100168 H 1.2226694 1.119024 Z M 2.6679833,4.6375968 3.2924589,4.0133089 3.2970696,4.1243795 3.3016803,4.23545 2.7882876,4.7486671 2.2748915,5.2618847 H 2.1591817 2.0435102 Z M 2.8222164,4.7916779 3.2924596,4.3214704 3.2970703,4.4325282 3.301681,4.5435875 2.9425312,4.9027359 2.5833819,5.2618844 H 2.4676971 2.3520123 Z m 0.1542547,0.1540576 0.3159877,-0.3161497 0.00461,0.1110198 0.00461,0.1110183 L 3.0968389,5.0567536 2.8919915,5.261884 H 2.7762617 2.6605319 Z m 0.154343,0.1539686 0.1616452,-0.1621806 0.00456,0.1106173 c 0.00444,0.1065633 0.00278,0.1125067 -0.045431,0.1621806 -0.048008,0.049496 -0.054672,0.051563 -0.1662226,0.051563 H 2.9691486 Z m 0.847875,0.1197294 c 0,-0.03534 0.10146,-0.1438168 0.6053436,-0.6472374 0.5028052,-0.5023419 0.6125143,-0.6047856 0.6476789,-0.6047856 0.040231,0 0.042335,0.00364 0.042335,0.073277 v 0.073276 L 4.6995419,4.6879241 4.1250365,5.2618847 h -0.073173 c -0.069575,0 -0.073173,-0.00208 -0.073174,-0.042451 z M 4.7343983,4.7300471 5.2663359,4.1982094 5.2709466,4.3092743 5.2755573,4.4203379 4.8547055,4.8411115 4.4338539,5.2618846 H 4.3181824 4.2025043 Z m 0.1542431,0.1540698 0.3776947,-0.3777675 0.00461,0.111041 0.00461,0.1110423 L 5.0089757,4.9951593 4.7423952,5.2618847 H 4.6266904 4.5109856 Z m 0.1542914,0.1540225 0.223404,-0.2237454 0.00461,0.1109223 0.00461,0.1109223 -0.1121477,0.112823 -0.1121461,0.112823 H 4.9354213 4.8195784 Z m 0.1540101,0.1543984 c 0.037458,-0.03814 0.070131,-0.069347 0.072606,-0.069347 0.00248,0 0.00449,0.031204 0.00449,0.069347 v 0.069347 H 5.2014402 5.1288351 Z M 2.0048126,5.1076234 V 4.9920301 L 2.51838,4.4789835 3.031948,3.9659368 3.1430937,3.970526 3.2542394,3.9751152 2.6295259,4.5991612 2.0048126,5.2232116 Z M 3.9786898,4.9843208 V 4.8687231 L 4.4305848,4.41733 4.8824806,3.9659369 4.993623,3.9705261 5.1047653,3.9751154 4.5417272,4.5375121 3.9786898,5.0999127 Z M 0.0309341,4.9226659 V 4.8070682 L 0.45199434,4.3865031 0.87305475,3.9659386 0.98419548,3.9705278 1.0953362,3.9751171 0.56313573,4.5066923 0.03093543,5.0382681 Z M 2.0048126,4.799354 V 4.6837479 L 2.3642058,4.3248427 2.7235989,3.9659379 2.834733,3.9705271 2.945867,3.9751163 2.47534,4.4450354 2.0048126,4.9149588 Z M 3.9786898,4.6760311 V 4.5604136 l 0.297734,-0.297238 0.2977335,-0.2972367 0.1111258,0.00459 0.111124,0.00459 L 4.3875484,4.3833805 3.9786898,4.791648 Z M 0.0309341,4.6143634 V 4.4987375 L 0.29784195,4.2323387 0.56474981,3.9659394 0.67586723,3.9705287 0.78698465,3.9751179 0.40895971,4.3525514 0.0309341,4.7299884 Z M 2.0048126,4.4910078 V 4.3753565 L 2.2100822,4.1706492 2.4153517,3.9659417 2.5264475,3.9705309 2.6375433,3.9751202 2.3211768,4.2908889 2.0048126,4.6066617 Z M 3.9786898,4.3676002 V 4.2518937 L 4.12236,4.1089196 4.2660285,3.965945 4.3770743,3.970535 4.4881218,3.975125 4.2334058,4.2292167 3.9786898,4.4833132 Z M 0.0309341,4.305851 V 4.1900867 L 0.14383421,4.0780164 0.25673432,3.9659461 0.36773189,3.9705353 0.47872947,3.9751245 0.25483145,4.1983762 0.0309331,4.4216278 Z M 2.0048126,4.1820464 c 0,-0.111473 0.00208,-0.1181366 0.0516,-0.1661091 0.049707,-0.048145 0.055653,-0.049809 0.162291,-0.045398 l 0.1106913,0.00459 -0.162291,0.1615346 -0.1622893,0.161534 z M 3.9786898,4.0675742 V 3.9674076 h 0.1036471 0.1036455 l -0.099346,0.1001666 c -0.054639,0.055095 -0.1012802,0.100168 -0.1036454,0.100168 -0.00236,0 -0.00433,-0.045078 -0.00433,-0.100168 z m -3.9477557,-0.02761 v -0.072555 h 0.06939325 c 0.0381655,0 0.0693932,0.00201 0.0693932,0.00452 0,0.00244 -0.0312245,0.035125 -0.0693932,0.072555 L 0.0309341,4.1125417 Z m 0,-0.7622409 c 0,-0.015112 1.26874,-1.2828479 1.2838612,-1.2828479 0.00633,0 0.011502,0.046844 0.011502,0.104102 V 2.2030779 L 0.78262381,2.7462148 0.23895606,3.2893505 H 0.13494441 c -0.05720407,0 -0.10401164,-0.00521 -0.10401164,-0.011621 z M 0.81749022,2.7883282 1.3185814,2.2873064 1.3231921,2.3983685 1.3278028,2.5094306 0.93780071,2.8993902 0.54779998,3.2893509 H 0.43208519 0.31640369 Z M 0.97173832,2.9423928 1.3185809,2.5954351 1.3231916,2.7064675 1.3278023,2.8175 1.0920911,3.0534249 0.85637374,3.28935 H 0.74065729 0.6249425 Z m 0.15431138,0.1540006 0.1925304,-0.1929565 0.00456,0.1108305 0.00461,0.1108305 -0.081161,0.082126 -0.081161,0.082127 H 1.0494722 0.93351976 Z m 0.1539768,0.154431 c 0.019919,-0.021188 0.038478,-0.038524 0.04124,-0.038524 0.00276,0 0.00501,0.017336 0.00501,0.038524 0,0.031493 -0.00754,0.038524 -0.04124,0.038524 H 1.2438018 Z M 2.0048106,3.2160762 V 3.1427996 L 2.5793154,2.568839 3.1538212,1.9948779 h 0.073173 c 0.069575,0 0.073173,0.00208 0.073173,0.042451 0,0.035338 -0.1014583,0.1438166 -0.6053435,0.6472374 -0.5028051,0.502342 -0.6125144,0.6047854 -0.6476789,0.6047854 -0.040231,0 -0.042335,-0.00364 -0.042334,-0.073276 z M 2.7296723,2.726698 3.2924573,2.1640448 3.297068,2.2751112 3.3016786,2.3861775 2.8499765,2.837765 2.3982764,3.2893523 H 2.2826065 2.1669317 Z M 2.8839121,2.8807727 3.2924576,2.472193 3.2970683,2.5832424 3.301679,2.6942918 3.0042443,2.9918227 2.7068049,3.2893534 H 2.5911084 2.4754119 Z M 3.0381885,3.0348103 3.2924583,2.7802689 3.297069,2.8912393 3.3016796,3.002211 3.1586137,3.1457821 3.0155428,3.289353 H 2.8997564 2.78397 Z m 0.1540334,0.1543746 c 0.054639,-0.055095 0.1012802,-0.100168 0.1036455,-0.100168 0.00236,0 0.00433,0.045073 0.00433,0.100168 v 0.100168 H 3.1965463 3.0929008 Z m 1.449639,-0.5241204 0.6244757,-0.624288 0.00461,0.1110692 0.00461,0.1110705 L 4.7621611,2.7761344 4.2487642,3.2893519 H 4.1330927 4.0174212 Z M 4.796094,2.8191453 5.2663368,2.348938 5.2709475,2.4599973 5.2755581,2.5710551 4.916414,2.9302036 4.5572646,3.289352 H 4.4415797 4.3258949 Z m 0.1542548,0.154058 0.3159876,-0.3161493 0.00461,0.1110183 0.00461,0.1110198 L 5.0707079,3.0842226 4.8658608,3.2893523 H 4.7501367 4.6344063 Z m 0.154343,0.1539691 0.1616435,-0.1621806 0.00456,0.1106173 c 0.00444,0.1065647 0.00278,0.1125053 -0.045429,0.1621805 -0.048008,0.049496 -0.054672,0.051563 -0.1662226,0.051563 H 4.943025 Z m -1.126002,0.00792 V 3.0195035 L 4.4922573,2.5064569 5.0058253,1.993411 5.116971,1.9980002 5.2281167,2.0025895 4.6034038,2.6266288 3.9786898,3.2506792 Z M 0.0309341,3.0734413 V 2.9578465 L 0.51366562,2.4756273 0.99639647,1.9934068 1.1075405,1.997996 1.2186846,2.0025852 0.62480967,2.5958073 0.0309341,3.1890333 Z M 2.0048126,2.9501361 V 2.8345356 L 2.4258724,2.4139717 2.8469326,1.9934066 2.9580734,1.9979958 3.0692141,2.0025851 2.5370129,2.5341568 2.0048126,3.0657325 Z M 3.9786898,2.8268233 V 2.7112172 L 4.3380834,2.3523125 4.6974772,1.9934079 4.8086113,1.9979979 4.9197454,2.0025879 4.4492178,2.4725068 3.9786898,2.942429 Z M 0.0309341,2.7651623 V 2.649552 L 0.35949642,2.3214797 0.68805957,1.9934073 0.79918864,1.9979966 0.91031938,2.0025858 0.47062682,2.4416789 0.0309341,2.8807739 Z M 2.0048126,2.6418322 V 2.5262062 L 2.27172,2.2598071 2.5386278,1.9934079 2.6497453,1.9979971 2.7608627,2.0025863 2.3828374,2.3800199 2.0048126,2.7574567 Z M 3.9786898,2.5184767 V 2.4028254 L 4.18396,2.1981172 4.3892295,1.9934099 4.5003253,1.9979991 4.6114211,2.0025883 4.2950546,2.3183569 3.9786898,2.6341296 Z M 0.0309341,2.4567842 V 2.3411117 l 0.17446236,-0.1738492 0.17446319,-0.1738487 0.11107414,0.00459 0.11107581,0.00459 -0.285537,0.2849301 -0.2855385,0.2849365 z m 1.9738785,-0.12346 V 2.2175598 L 2.1177127,2.1054895 2.2306129,1.9934192 2.3416104,1.9980084 2.452608,2.0025976 2.22871,2.2258464 2.0048126,2.4490981 Z M 3.9786898,2.2095204 c 0,-0.1114731 0.00208,-0.118138 0.0516,-0.1661098 0.049709,-0.048145 0.055653,-0.049809 0.162291,-0.045398 l 0.1106929,0.00459 -0.1622909,0.1615346 -0.162291,0.161534 z M 0.0309341,2.146678 c 0,-0.081959 0.0065249,-0.122617 0.02170682,-0.1352056 0.01336598,-0.011085 0.06389539,-0.016249 0.13151594,-0.013443 L 0.29396598,2.0025494 0.16245004,2.1331969 0.03093576,2.2638458 Z M 2.0048126,2.067436 V 1.99488 h 0.069393 c 0.038165,0 0.069393,0.00201 0.069393,0.00452 0,0.00244 -0.031226,0.035125 -0.069393,0.072555 L 2.0048126,2.140012 Z M 0.0309341,1.2127194 V 1.1086177 L 0.57460168,0.56548253 1.1182694,0.02234613 h 0.1040117 c 0.057204,0 0.1040116,0.0052105 0.1040116,0.01163546 0,0.01511197 -1.26873949,1.28284721 -1.28386019,1.28284721 -0.0063251,0 -0.01150174,-0.046845 -0.01150174,-0.1041021 z M 0.72495084,0.72335066 1.3185814,0.12988019 1.3231921,0.24094795 1.3278028,0.35201712 0.84525717,0.83441913 0.36270875,1.3168213 H 0.24703557 0.1313624 Z m 0.15423645,0.15407799 0.43939461,-0.43939346 0.00461,0.11105363 0.00461,0.11105506 -0.32829936,0.32833926 -0.328296,0.32833816 H 0.55552478 0.43983496 Z M 1.0334504,1.0314776 1.3185814,0.74613384 1.3231921,0.85713382 1.3278028,0.96813521 1.1538381,1.1424781 0.97987093,1.3168213 H 0.86406792 0.74831485 Z M 1.1878433,1.1853958 1.3185802,1.0539703 1.323141,1.163705 c 0.00281,0.067573 -0.00236,0.1180688 -0.013449,0.1314256 -0.0126,0.015167 -0.053284,0.021691 -0.1352977,0.021691 h -0.117283 z m 0.8169688,0.1197986 c 0,-0.015112 1.2687387,-1.28284784 1.2838601,-1.28284784 0.00633,0 0.011502,0.04684541 0.011502,0.10410202 v 0.1041006 L 2.7565063,0.77368488 2.2128381,1.3168206 H 2.1088265 c -0.057204,0 -0.1040117,-0.00521 -0.1040117,-0.011621 z M 2.7913674,0.81579929 3.2924588,0.31477759 3.2970695,0.4258397 3.3016801,0.53690182 2.9116782,0.92686154 2.5216769,1.3168223 H 2.406002 2.2903205 Z M 2.9456172,0.96986401 3.2924593,0.62290632 3.29707,0.73393878 3.3016806,0.84497124 3.0659636,1.0808955 2.8302461,1.3168213 H 2.7145313 2.5988165 Z m 0.1543113,0.15400059 0.1925299,-0.19295649 0.00456,0.11083049 0.00456,0.1108306 -0.081163,0.082126 -0.081161,0.082127 H 3.023293 2.9073405 Z m 0.1539785,0.154431 c 0.019919,-0.021188 0.038477,-0.038524 0.04124,-0.038524 0.00278,0 0.00501,0.017337 0.00501,0.038524 0,0.031493 -0.00754,0.038524 -0.041238,0.038524 H 3.2176835 Z M 3.9786898,1.2435469 V 1.1702659 L 4.5531957,0.59630533 5.1277004,0.02234416 h 0.073173 c 0.069575,0 0.073173,0.0020757 0.073173,0.04245105 0,0.03533987 -0.1014583,0.14381676 -0.6053429,0.64723757 C 4.1658983,1.2143739 4.0561892,1.3168182 4.0210253,1.3168182 c -0.040231,0 -0.042335,-0.00364 -0.042335,-0.073277 z M 4.7035528,0.7541688 5.2663366,0.19151548 5.2709473,0.30258183 5.275558,0.41364818 4.8238628,0.86523529 4.372162,1.3168227 H 4.2564855 4.1408107 Z m 0.1542381,0.1540746 0.408545,-0.4085797 0.00461,0.1110494 0.00461,0.11104941 -0.2974354,0.29752989 -0.29744,0.2975307 H 4.5649854 4.4492889 Z M 5.0120657,1.062281 5.2663354,0.80773948 5.2709461,0.91870981 5.2755568,1.0296815 5.1324842,1.1732526 4.9894133,1.3168237 H 4.8736314 4.7578449 Z m 0.154035,0.1543745 c 0.054637,-0.055095 0.1012802,-0.100168 0.1036455,-0.100168 0.00236,0 0.00433,0.045077 0.00433,0.100168 v 0.100168 H 5.1704251 5.0667797 Z M 2.0048126,1.1009102 V 0.9853153 L 2.4875435,0.50309602 2.9702745,0.0208756 3.0814186,0.02546483 3.1925626,0.03005406 2.5986877,0.623276 2.0048126,1.2165015 Z M 3.9786898,0.97760568 V 0.86200603 L 4.39975,0.44144096 4.8208105,0.02087645 4.9319512,0.02546568 5.0430919,0.0300549 4.5108903,0.56162631 3.9786898,1.093202 Z M 0.0309341,0.91595076 V 0.8003432 L 0.4211602,0.41060813 0.81138697,0.02087278 0.92252437,0.02546201 1.0336618,0.03005123 0.5322986,0.53079828 0.0309341,1.0315473 Z M 2.0048126,0.7926333 V 0.67702291 L 2.3333745,0.34895081 2.6619369,0.02087843 2.7730677,0.02546766 2.8841968,0.03005688 2.4445047,0.46914788 2.0048126,0.9082434 Z M 3.9786898,0.66929846 V 0.55367254 L 4.2455978,0.28727259 4.5125057,0.02087391 4.6236231,0.02546314 4.7347405,0.03005236 4.3567154,0.40748619 3.9786898,0.78492255 Z M 0.0309341,0.60762476 V 0.49198896 L 0.2670198,0.25643214 0.50310633,0.02087532 0.61421376,0.02546455 0.72532286,0.03005378 0.37812873,0.37666014 0.03093443,0.72326537 Z M 2.0048126,0.48424856 V 0.36857604 L 2.1792745,0.19472681 2.353737,0.02087829 2.4648128,0.02546751 2.5758886,0.03005674 2.2903506,0.31498856 2.0048126,0.59992517 Z M 3.9786898,0.36078763 V 0.24502332 L 4.0915899,0.13295299 4.20449,0.02088266 4.3154876,0.02547189 4.4264852,0.03006112 4.2025883,0.25330935 3.9786898,0.47656026 Z M 0.0309341,0.29897583 V 0.18310279 L 0.11311741,0.10199633 0.19530073,0.02088987 0.30620676,0.02547909 0.41711113,0.03006832 0.22402261,0.2224672 0.0309341,0.41486637 Z M 2.0048126,0.17414462 c 0,-0.08195935 0.00652,-0.12261708 0.021707,-0.13520568 0.013366,-0.01108475 0.063895,-0.01624869 0.1315142,-0.0134429 L 2.2678445,0.03001466 2.1363286,0.16066359 2.0048143,0.29131252 Z M 3.9786898,0.09490251 V 0.02234613 h 0.069395 c 0.038165,0 0.069393,0.0020051 0.069393,0.0045186 0,0.0024429 -0.031226,0.03512523 -0.069393,0.07255497 L 3.9786898,0.16748615 Z M 0.0309341,0.06087036 c 0,-0.03148774 0.0075402,-0.03852409 0.04123813,-0.03852409 H 0.11341037 L 0.07719238,0.06087036 c -0.01991914,0.02118811 -0.03847672,0.0385255 -0.04123813,0.0385255 -0.0027797,0 -0.0050102,-0.01733598 -0.0050102,-0.0385255 z"
       id="path3309" />
  </g>
</svg>
