<?xml version="1.0" encoding="UTF-8" standalone="no"?>
<svg
   xmlns:dc="http://purl.org/dc/elements/1.1/"
   xmlns:cc="http://creativecommons.org/ns#"
   xmlns:rdf="http://www.w3.org/1999/02/22-rdf-syntax-ns#"
   xmlns:svg="http://www.w3.org/2000/svg"
   xmlns="http://www.w3.org/2000/svg"
   xmlns:sodipodi="http://sodipodi.sourceforge.net/DTD/sodipodi-0.dtd"
   xmlns:inkscape="http://www.inkscape.org/namespaces/inkscape"
   width="70"
   height="30"
   viewBox="0 0 18.520833 7.9375002"
   version="1.1"
   id="svg1506"
   inkscape:version="1.0.2-2 (e86c870879, 2021-01-15)"
   sodipodi:docname="github.svg">
  <defs
     id="defs1500" />
  <sodipodi:namedview
     id="base"
     pagecolor="#ffffff"
     bordercolor="#666666"
     borderopacity="1.0"
     inkscape:pageopacity="0.0"
     inkscape:pageshadow="2"
     inkscape:zoom="20.014286"
     inkscape:cx="35"
     inkscape:cy="15"
     inkscape:document-units="px"
     inkscape:current-layer="layer1"
     inkscape:document-rotation="0"
     showgrid="false"
     units="px"
     inkscape:window-width="1600"
     inkscape:window-height="837"
     inkscape:window-x="-8"
     inkscape:window-y="-8"
     inkscape:window-maximized="1" />
  <metadata
     id="metadata1503">
    <rdf:RDF>
      <cc:Work
         rdf:about="">
        <dc:format>image/svg+xml</dc:format>
        <dc:type
           rdf:resource="http://purl.org/dc/dcmitype/StillImage" />
        <dc:title></dc:title>
      </cc:Work>
    </rdf:RDF>
  </metadata>
  <g
     inkscape:label="Layer 1"
     inkscape:groupmode="layer"
     id="layer1">
    <path
       style="fill:#000080;stroke-width:0.00830686"
       d="M 1.1104119,6.3211146 C 0.99161324,6.3008993 0.90866634,6.2718597 0.81290254,6.216918 0.71179864,6.1589121 0.66168714,6.1177003 0.57269914,6.0193628 0.50532174,5.9449015 0.47851074,5.9078846 0.42491184,5.8152864 0.37159024,5.7231724 0.32919064,5.5856768 0.30977384,5.4419335 0.29438204,5.3280458 0.29394744,5.2762421 0.29411364,3.5643045 c 1.431e-4,-1.6866728 6.391e-4,-1.7652473 0.01536,-1.8735628 0.018818,-0.1398169 0.0625,-0.2806942 0.1154277,-0.3721333 0.1052694,-0.1818619 0.229753,-0.3109197 0.3867134,-0.40092317 0.099661,-0.0571469 0.1801145,-0.0846552 0.30956526,-0.10583512 0.1039867,-0.0170116 0.1441836,-0.0174288 1.7213154,-0.0174288 1.5771283,0 1.6173249,5.2265e-4 1.7213145,0.0174284 0.1290551,0.021128 0.2099251,0.0486935 0.3082897,0.10512337 0.1011035,0.0580072 0.1512114,0.0992204 0.2401999,0.19755822 0.067385,0.074458 0.094191,0.1114785 0.1477872,0.2040762 0.053317,0.092111 0.09572,0.229607 0.1151376,0.3733528 0.015396,0.113851 0.015826,0.1661892 0.015826,1.8761262 0,1.73949 -1.797e-4,1.7603231 -0.016629,1.8774699 C 5.358127,5.5616871 5.331932,5.6596857 5.2941064,5.745972 5.1887406,5.9863201 4.9652602,6.2002467 4.7339806,6.2821583 4.6003001,6.3295023 4.5551589,6.3333382 4.0888793,6.3369192 3.7087058,6.339832 3.652343,6.3384461 3.6030599,6.3258202 3.5320152,6.3074793 3.5136758,6.2945927 3.4950507,6.2499724 3.4808207,6.2158931 3.4799606,6.1855852 3.4795592,5.719971 3.4793471,5.4483504 3.475641,5.1968752 3.471436,5.1611353 3.4559732,5.0307806 3.4099098,4.9107779 3.3441891,4.8295491 l -0.031585,-0.039045 0.081538,-0.010312 c 0.04484,-0.00568 0.1030359,-0.015737 0.129315,-0.022352 0.026262,-0.00664 0.07287,-0.018159 0.1035348,-0.025663 C 3.744964,4.7033271 3.9098578,4.6242235 4.0257733,4.5408662 4.1112965,4.4793601 4.2193067,4.3648032 4.2700997,4.2817161 4.3813707,4.0996978 4.4519796,3.8387874 4.4661895,3.5571524 4.4847774,3.1890131 4.421789,2.9590698 4.2328017,2.7048909 l -0.019314,-0.026 0.024437,-0.095305 C 4.259465,2.4994937 4.2623894,2.474518 4.2627621,2.3713169 4.2630937,2.2747016 4.2594172,2.2370125 4.2421482,2.1546915 4.2154467,2.0282416 4.1870728,1.9453684 4.1676057,1.93705 4.0773806,1.8984889 3.7964777,2.0063371 3.5536392,2.1727714 l -0.076368,0.05234 -0.08042,-0.021363 c -0.2003958,-0.053236 -0.3175384,-0.067503 -0.554294,-0.067503 -0.2361545,0 -0.3496296,0.013756 -0.5552282,0.067343 L 2.205974,2.2247957 2.151936,2.1862193 C 2.091467,2.1430752 1.9638609,2.0664418 1.9292901,2.0525301 c -0.012402,-0.005 -0.05303,-0.023342 -0.090265,-0.040797 -0.087459,-0.040971 -0.2179076,-0.082284 -0.2598163,-0.082284 -0.072601,0 -0.077355,0.00363 -0.1004359,0.076542 -0.042704,0.1349063 -0.056376,0.2212757 -0.05646,0.3566639 -7.36e-5,0.1147789 0.00198,0.1338616 0.024801,0.2209345 l 0.024903,0.095304 -0.015794,0.02165 C 1.3349102,2.8668454 1.2835356,2.974874 1.2420123,3.1509728 c -0.050714,0.2150811 -0.027166,0.6023163 0.051615,0.8485152 0.062865,0.1964804 0.1198355,0.3013515 0.2263456,0.416651 0.08693,0.094107 0.1515113,0.1433838 0.275616,0.210303 0.1450905,0.078238 0.3130694,0.130941 0.4914051,0.1541762 0.042711,0.00554 0.07765,0.01196 0.07765,0.014228 0,0.00234 -0.013429,0.020763 -0.029856,0.041116 -0.043977,0.054506 -0.087701,0.1540676 -0.1076869,0.2452182 l -0.01759,0.080302 -0.039892,0.016073 c -0.068405,0.027546 -0.1402609,0.042919 -0.2270545,0.04857 -0.1017194,0.00664 -0.1498922,-0.0027 -0.2301724,-0.044588 C 1.6368562,5.142135 1.5512387,5.0515919 1.4863127,4.9424612 1.4148756,4.8223813 1.3512427,4.7558734 1.2536595,4.6992923 1.1668058,4.648929 1.0748616,4.6310108 1.0107498,4.6519408 c -0.03125,0.010206 -0.036146,0.015059 -0.038237,0.038104 -0.00198,0.021156 0.00505,0.035362 0.034945,0.071577 0.020544,0.024854 0.050286,0.052441 0.06611,0.061317 0.096326,0.054039 0.1917913,0.1961434 0.2795993,0.4162054 0.033788,0.084678 0.070857,0.1389833 0.1328053,0.1945719 0.088044,0.079005 0.1630781,0.1108314 0.3069888,0.1302146 0.1420518,0.019122 0.3224988,0.014796 0.3984837,-0.00958 0.013097,-0.00416 0.013935,0.015555 0.013935,0.3306702 0,0.3297863 -2.895e-4,0.3356817 -0.017623,0.3692362 -0.00968,0.018757 -0.028495,0.041363 -0.04181,0.050246 -0.046847,0.031271 -0.1053429,0.035012 -0.5293944,0.033918 -0.3589513,-0.00102 -0.4227077,-0.00306 -0.5061301,-0.017296 z M 1.899101,5.3356477 c -0.00648,-0.02225 0.00269,-0.044515 0.018421,-0.04466 0.00722,-8.59e-5 0.020448,-0.00234 0.029461,-0.00489 0.00974,-0.00284 0.023875,0.00182 0.034913,0.011545 0.015827,0.013937 0.017156,0.01907 0.00921,0.035231 -0.012732,0.025896 -0.084639,0.028076 -0.09201,0.00284 z m 0.1997902,-0.017298 c -0.024238,-0.029149 0.0023,-0.061901 0.049921,-0.061901 0.015692,0 0.027031,0.00584 0.03235,0.0167 0.012304,0.024985 0.00198,0.04259 -0.030355,0.052391 -0.037629,0.011357 -0.036332,0.011545 -0.051922,-0.00722 z m -0.3858896,-0.00577 c -0.020051,-0.00948 -0.025837,-0.017036 -0.023905,-0.031264 0.0039,-0.028478 0.024206,-0.038257 0.059682,-0.028726 0.025536,0.00686 0.030918,0.012244 0.033116,0.03324 0.00416,0.039731 -0.020844,0.049452 -0.068906,0.026749 z M 1.5383636,5.1953211 c -0.029128,-0.029703 -0.028923,-0.029119 -0.017655,-0.052077 0.011805,-0.024015 0.041087,-0.020661 0.065928,0.00755 0.023241,0.026392 0.026764,0.044383 0.011838,0.06061 -0.01536,0.0167 -0.032484,0.012142 -0.060129,-0.016073 z M 1.4091653,5.0295778 c -0.020116,-0.035924 -0.020083,-0.037704 0.00166,-0.054527 0.017054,-0.013127 0.019016,-0.012478 0.040288,0.013207 0.028259,0.034116 0.026399,0.063469 -0.00428,0.067312 -0.017354,0.00211 -0.024934,-0.00307 -0.037802,-0.025999 z m 6.1800199,0.022411 C 7.4161902,5.0357548 7.3218356,5.0173408 7.2069006,4.977368 6.8630657,4.8577724 6.6064942,4.5818586 6.4996394,4.2167771 6.413409,3.9221947 6.416362,3.5295222 6.5069025,3.2490935 6.6880236,2.6881293 7.1897702,2.3890423 7.863946,2.4401768 c 0.2527144,0.019174 0.4844632,0.075425 0.6614291,0.1605646 l 0.043407,0.020893 V 2.877702 c 0,0.1408384 -9.556e-4,0.256068 -0.00268,0.256068 -0.00134,0 -0.040712,-0.021127 -0.087406,-0.046928 C 8.2509698,2.9609443 8.0308409,2.8999963 7.8034978,2.8998894 7.5805803,2.8998061 7.4187026,2.9542486 7.2875289,3.0734877 7.11576,3.2296285 7.0269378,3.5258918 7.0548999,3.8494305 c 0.028192,0.3260328 0.1425472,0.535319 0.3549551,0.6495503 0.1215282,0.065357 0.172607,0.07615 0.3623731,0.076569 0.1609,2.611e-4 0.2271903,-0.00797 0.2966678,-0.037207 l 0.021914,-0.00922 V 4.2819722 4.0348303 H 7.9076203 7.7244445 V 3.818228 3.6016235 h 0.465602 0.4656011 l 1.797e-4,0.5999928 c 1.07e-4,0.3299942 -0.00258,0.6049912 -0.00631,0.6111025 -0.00937,0.016153 -0.1738972,0.090124 -0.2910035,0.1308534 -0.1204033,0.041874 -0.2551408,0.073845 -0.384323,0.091196 -0.097544,0.013105 -0.3220571,0.023133 -0.385142,0.017218 z M 14.53399,5.0481948 C 14.395255,5.0300666 14.266672,4.9609333 14.183346,4.8596465 14.131698,4.7968638 14.077847,4.6787485 14.050215,4.5676357 l -0.02154,-0.08664 -0.0027,-0.6866329 -0.0026,-0.6866329 h 0.275124 0.275124 l 1.44e-4,0.5566712 c 1.79e-4,0.7318294 0.0039,0.7682557 0.08745,0.857271 0.05993,0.063847 0.10675,0.080468 0.208853,0.074136 0.05744,-0.00357 0.07944,-0.00924 0.119903,-0.031016 0.109263,-0.058757 0.17938,-0.1731401 0.213359,-0.3480537 0.0062,-0.031869 0.01051,-0.2234357 0.013,-0.5783307 l 0.0037,-0.5306788 h 0.274086 0.274086 V 4.0564517 5.0051721 H 15.49353 15.218767 V 4.870878 c 0,-0.073861 -0.0013,-0.1342941 -0.0033,-0.1342941 -0.0016,0 -0.02776,0.027683 -0.05775,0.061514 -0.105296,0.1188329 -0.225384,0.199369 -0.346982,0.2327075 -0.07435,0.020368 -0.195711,0.028003 -0.276965,0.0174 z m 2.808814,-1.721e-4 C 17.183629,5.0279447 17.059566,4.9559304 16.932619,4.8100016 l -0.07307,-0.083995 v 0.139606 0.1396061 H 16.58478 16.310014 V 3.6882795 2.371333 h 0.274766 0.274769 v 0.5087357 0.508738 l 0.06295,-0.073877 c 0.103441,-0.1213912 0.210263,-0.1921602 0.338464,-0.2242356 0.187336,-0.046871 0.368887,-0.020843 0.517781,0.074246 0.07296,0.046593 0.176673,0.1542703 0.226832,0.2355152 0.08154,0.1320772 0.135073,0.2921677 0.156125,0.4668758 0.03132,0.2598064 -6.83e-4,0.5222725 -0.08739,0.7195929 -0.04829,0.1097744 -0.09129,0.1764773 -0.166844,0.2588737 -0.107917,0.1176909 -0.233381,0.1836985 -0.385122,0.202612 -0.07742,0.00964 -0.100855,0.00961 -0.179545,-2.603e-4 z m 0.04288,-0.4643357 c 0.0932,-0.047446 0.154893,-0.1361356 0.192187,-0.2762682 0.01652,-0.06206 0.01835,-0.086882 0.01835,-0.2466212 0,-0.1597412 -0.002,-0.1845612 -0.01835,-0.2466242 -0.03731,-0.1401786 -0.0987,-0.2284034 -0.192666,-0.2768465 -0.04927,-0.025401 -0.05666,-0.026706 -0.151345,-0.026706 -0.09131,0 -0.103318,0.00182 -0.145047,0.023183 -0.06454,0.032905 -0.09772,0.063921 -0.137401,0.1284251 -0.06352,0.1032453 -0.08707,0.2110475 -0.08707,0.3985497 0,0.1875001 0.02354,0.2953015 0.08707,0.3985499 0.03698,0.060099 0.06759,0.090451 0.121298,0.12026 0.05191,0.028814 0.08665,0.035187 0.177562,0.032598 0.07428,-0.00211 0.0901,-0.00547 0.135412,-0.028522 z M 9.158139,4.0564897 V 3.1077685 H 9.432903 9.707668 V 4.0564897 5.005213 H 9.432903 9.158139 Z m 1.623805,0.9399824 c -0.260363,-0.027129 -0.399627,-0.1408562 -0.453596,-0.370406 -0.0253,-0.107685 -0.03118,-0.233754 -0.03125,-0.6713788 l -7.1e-5,-0.413712 H 10.161631 10.026239 V 3.324373 3.1077685 h 0.135392 0.135394 V 2.8391805 2.5705949 h 0.278746 0.278749 v 0.2685856 0.268588 h 0.286713 0.286712 V 3.324373 3.5409753 H 11.141233 10.85452 l 7.3e-5,0.4397039 c 0,0.2940799 0.003,0.4511169 0.0088,0.4741648 0.01313,0.051457 0.05774,0.095388 0.108979,0.1073279 0.02454,0.00568 0.118733,0.00984 0.224989,0.00984 h 0.182788 V 4.7886135 5.005218 L 11.111356,5.003898 C 10.963517,5.0030958 10.815282,4.999808 10.781938,4.996368 Z M 11.770403,3.6882665 V 2.37132 h 0.274768 0.274766 v 0.5079828 0.5079827 l 0.08583,-0.089938 c 0.09662,-0.1012499 0.18009,-0.1585037 0.282983,-0.1940956 0.172261,-0.059588 0.393899,-0.041554 0.535259,0.043567 0.119128,0.071731 0.210111,0.204355 0.253899,0.37012 0.03394,0.1284555 0.03656,0.1899219 0.03662,0.8536289 l 7.3e-5,0.6346491 h -0.273666 -0.273661 l -0.0046,-0.5869951 c -0.0026,-0.3504348 -0.008,-0.6110595 -0.01317,-0.6467083 -0.01596,-0.1110476 -0.05471,-0.1758625 -0.131776,-0.2204784 -0.03616,-0.020945 -0.04786,-0.02306 -0.127426,-0.02306 -0.08209,0 -0.09101,0.00182 -0.141566,0.027807 -0.07152,0.03685 -0.123943,0.096316 -0.164791,0.1869292 -0.05825,0.1291907 -0.05808,0.1272451 -0.06173,0.7274873 l -0.0033,0.5350113 H 12.044639 11.770367 V 3.6882629 Z M 1.3139497,4.8784136 c -0.01968,-0.027208 -0.020179,-0.032373 -0.00461,-0.046447 0.00957,-0.00864 0.015692,-0.00805 0.031249,0.00307 0.02404,0.017138 0.034356,0.048227 0.019419,0.058524 -0.017955,0.012376 -0.028758,0.00883 -0.046066,-0.015111 z M 1.2213037,4.7776171 c -0.018753,-0.011146 -0.027696,-0.024774 -0.02241,-0.034079 0.00601,-0.010523 0.038403,-0.00823 0.049179,0.0035 0.022078,0.023993 0.00166,0.047446 -0.026764,0.030593 z M 9.158139,2.6182461 V 2.37132 H 9.432903 9.707668 V 2.6182461 2.8651749 H 9.432903 9.158139 Z"
       id="path2085" />
  </g>
</svg>
