<?xml version="1.0" encoding="UTF-8" standalone="no"?>
<svg
   xmlns:dc="http://purl.org/dc/elements/1.1/"
   xmlns:cc="http://creativecommons.org/ns#"
   xmlns:rdf="http://www.w3.org/1999/02/22-rdf-syntax-ns#"
   xmlns:svg="http://www.w3.org/2000/svg"
   xmlns="http://www.w3.org/2000/svg"
   xmlns:sodipodi="http://sodipodi.sourceforge.net/DTD/sodipodi-0.dtd"
   xmlns:inkscape="http://www.inkscape.org/namespaces/inkscape"
   width="64"
   height="64"
   viewBox="0 0 16.933333 16.933334"
   version="1.1"
   id="svg851"
   inkscape:version="1.0.2-2 (e86c870879, 2021-01-15)"
   sodipodi:docname="icon.svg">
  <defs
     id="defs845" />
  <sodipodi:namedview
     id="base"
     pagecolor="#ffffff"
     bordercolor="#666666"
     borderopacity="1.0"
     inkscape:pageopacity="0.0"
     inkscape:pageshadow="2"
     inkscape:zoom="10.109375"
     inkscape:cx="32"
     inkscape:cy="32"
     inkscape:document-units="px"
     inkscape:current-layer="layer1"
     inkscape:document-rotation="0"
     showgrid="false"
     units="px"
     inkscape:window-width="1600"
     inkscape:window-height="837"
     inkscape:window-x="-8"
     inkscape:window-y="-8"
     inkscape:window-maximized="1" />
  <metadata
     id="metadata848">
    <rdf:RDF>
      <cc:Work
         rdf:about="">
        <dc:format>image/svg+xml</dc:format>
        <dc:type
           rdf:resource="http://purl.org/dc/dcmitype/StillImage" />
        <dc:title></dc:title>
      </cc:Work>
    </rdf:RDF>
  </metadata>
  <g
     inkscape:label="Layer 1"
     inkscape:groupmode="layer"
     id="layer1">
    <path
       style="fill:#000000;fill-opacity:1;stroke:none;stroke-width:0.0201143"
       d="m 1.2057055,0.80944389 0.2737576,0.0192455 v 0.0192455 L 1.353112,0.86710958 C 1.365882,0.92499328 1.350532,1.0037262 1.377145,1.0559794 1.415306,1.1315204 1.5207462,1.189789 1.5810962,1.2513619 1.6892964,1.3617165 1.7824564,1.4872699 1.861427,1.6164014 2.2222839,2.2064685 2.4404236,2.860923 2.6727799,3.4992201 2.7498967,3.7110764 2.9441188,4.0456663 2.9207651,4.2677194 2.8938597,4.5234894 2.7769598,4.7871778 2.7087064,5.0362108 2.552137,5.6076289 2.384218,6.1765871 2.2197562,6.7461184 1.7803307,8.2680005 1.3849192,9.8023042 0.9230161,11.318689 0.71056355,12.016158 0.52316856,12.72224 0.36758877,13.432063 c -0.0593841,0.270919 -0.19918554,0.649746 -0.13055795,0.922204 0.0818134,-0.02649 0.12972496,-0.05109 0.12635114,-0.13449 0.23286173,-0.08143 0.5318809,-0.03841 0.77915654,-0.03841 -0.011783,0.139756 0.019537,0.377756 -0.060481,0.498775 -0.16190389,0.244904 -0.64772825,0.130993 -0.88714287,0.07761 -0.0495731,0.189973 0.011783,0.352814 0.11422645,0.518736 0.0818432,0.132535 0.14943885,0.265537 0.28671079,0.359252 0.45099743,0.307918 1.18201263,0.172122 1.68383573,0.06091 0.197252,-0.04369 0.394567,-0.08899 0.5896298,-0.140194 0.057281,-0.01502 0.1907047,-0.04195 0.145597,-0.121367 C 2.8765005,15.191545 2.5541372,15.330024 2.342862,15.383629 1.9002166,15.495852 1.3921012,15.599074 0.9319556,15.530985 0.7926191,15.510376 0.53873333,15.480649 0.46512685,15.349791 0.41586032,15.262213 0.57954038,15.155615 0.63713792,15.103662 0.88360625,14.881367 1.090543,14.725089 1.4373546,14.70011 1.416301,14.464571 1.3469787,14.249334 1.3534379,14.008467 1.3786188,13.07013 1.6700709,12.15231 1.8917097,11.241867 2.1867985,10.029626 2.4986106,8.820953 2.8036402,7.6106959 2.9240691,7.1328478 2.9724196,6.5237108 3.2365742,6.0929101 3.4739455,5.7057813 3.9264072,5.6265487 4.3218396,5.9015566 4.4948727,6.0219032 4.2379424,6.1711687 4.1347107,6.2603324 4.0252282,6.354891 3.8515857,6.4702641 3.7839225,6.5941434 3.7202813,6.710685 3.7219364,6.8693107 3.694722,6.9958977 3.6315297,7.2899458 3.5711065,7.587602 3.4985384,7.8796724 c -0.408595,1.64472 -0.7554425,3.3162726 -1.0835758,4.9760306 -0.077747,0.393317 -0.1245792,0.793208 -0.1544382,1.191173 -0.00959,0.127538 0.074158,0.362431 0.010584,0.471863 -0.091144,0.15685 -0.4199486,0.230044 -0.5810658,0.31585 0.1817756,0.214754 0.5882433,0.294146 0.8633925,0.362136 0.111736,0.02762 0.2225877,0.06996 0.3369326,0.04136 C 2.7798541,15.113029 2.6072804,15.024656 2.5346747,14.87305 2.4106584,14.614125 2.4366027,14.301247 2.4656201,14.027704 2.5218043,13.498088 2.6087517,12.972567 2.7340292,12.452278 3.013264,11.292404 3.2415589,10.120331 3.4968473,8.9556086 3.6312831,8.3422914 3.871709,7.6779961 3.9011666,7.0535782 4.0309916,7.1879456 4.0661361,7.4407669 4.1206791,7.6107328 4.2267315,7.941157 4.3571844,8.270146 4.4950763,8.5905691 c 0.3743105,0.8698138 0.8019849,1.7181949 1.3715288,2.4976229 0.3388667,0.463757 0.7226744,0.909063 1.2354232,1.222704 1.0977718,0.671493 2.3358122,0.04565 3.1587467,-0.703962 1.337983,-1.218764 2.379932,-2.7196466 3.165258,-4.2843868 0.264196,-0.5264381 0.621109,-1.1020607 0.751589,-1.6714869 h 0.02107 l -0.06318,0.4995288 h 0.02105 l 0.08424,-0.6724373 h -0.02108 v 0.1344876 h -0.02105 V 5.439714 h 0.06317 V 5.362866 h -0.02108 V 5.42052 h -0.02108 l 0.06317,-0.1152761 -0.01311,-0.1976243 0.04676,-0.2711583 0.240064,-0.030716 h 0.631749 c -0.03031,0.6530127 -0.155831,1.3095426 -0.228063,1.9596733 -0.145324,1.3078366 -0.2877,2.6160124 -0.445949,3.9226144 -0.143096,1.181295 -0.294651,2.362235 -0.294651,3.551044 H 13.41944 l -0.06318,-0.07685 v -0.03841 l 0.06318,-0.01925 -0.06318,-0.01924 0.02106,-0.05766 -0.04211,-0.05763 c -0.121844,0.196197 -0.04853,0.607034 -0.02603,0.826138 0.08093,0.788227 0.37846,1.997807 1.500089,1.898763 0.444308,-0.03924 0.864024,-0.2356 1.242441,-0.43883 0.183984,-0.09879 0.481033,-0.251841 0.147406,-0.389861 -0.0903,-0.03735 -0.18131,0.0471 -0.252697,0.08855 -0.181947,0.105689 -0.371093,0.205329 -0.568576,0.284984 -0.337085,0.135948 -0.76861,0.269068 -1.137151,0.174388 -0.139973,-0.03592 -0.249852,-0.121296 -0.379046,-0.177046 0.08205,-0.126363 0.181118,-0.22288 0.29481,-0.326611 0.103582,-0.09451 0.220104,-0.24559 0.357914,-0.297556 0.54385,-0.205059 1.133143,0.295483 1.705806,0.182281 v -0.03841 c -0.345337,-0.240059 -0.459156,-0.583386 -0.528144,-0.960624 -0.113167,-0.618755 -0.109262,-1.259938 -0.04399,-1.882823 0.27235,-2.600333 0.541178,-5.2113137 0.930144,-7.8002726 0.07891,-0.5252249 0.165835,-1.0491296 0.234906,-1.575419 0.04442,-0.3384302 0.103029,-0.67834 0.05664,-1.0182638 C 16.832203,2.2447625 16.592183,1.7323065 16.262345,1.6740761 16.228554,1.8789608 16.049339,2.0783435 15.904353,2.2312388 15.949223,2.0588287 16.065828,1.8038339 16.220229,1.69329 16.154339,1.5356614 15.852358,1.5434048 15.693767,1.5406184 15.190198,1.5317896 14.550301,1.7006001 14.093333,1.8854032 L 14.409212,2.173588 14.17757,2.1543425 C 14.19868,2.0830275 14.19191,2.0482676 14.1144,2.0198535 14.01795,2.2776852 13.988475,2.5612207 13.919928,2.8267722 13.812131,3.2444306 13.660611,3.6551731 13.494758,4.0563688 12.842661,5.6337086 11.856795,7.0945534 10.808788,8.4752396 10.458124,8.9372007 10.064231,9.365541 9.6289969,9.7624729 9.3446895,10.021761 8.9980453,10.291525 8.5971378,10.379209 8.4211552,10.417695 8.266988,10.378603 8.091739,10.376906 L 7.7337465,11.106989 7.6284519,11.068582 8.0496186,10.319296 C 7.2962376,9.809763 6.9488567,8.9659843 6.5906976,8.2059226 5.7935357,6.5142088 5.3231991,4.7222016 4.6873199,2.9801291 4.4365143,2.2929978 4.234295,1.550338 3.8252571,0.92439516 3.6771312,0.69773868 3.5015909,0.38889144 3.2062261,0.3095988 l -0.063182,0.15369421 0.042119,-0.0192455 v 0.0192455 L 2.953521,0.80911987 C 2.929695,0.67407946 3.0172715,0.53900196 3.0893025,0.42486616 3.1168266,0.38124571 3.17609,0.31500223 3.1291774,0.26594966 3.0410336,0.17376032 2.7534564,0.21244153 2.6376353,0.22753753 2.2557693,0.27734548 1.8768671,0.40750177 1.5426092,0.58145286 1.4241763,0.64310932 1.2698635,0.6945624 1.2056757,0.80911336 M 15.862266,1.7313073 v 0.3650395 h -0.02108 l 0.02108,-0.3650395 m 0,0.3842536 v 0.057654 h -0.02108 l 0.02108,-0.057654 M 15.546393,14.83422 c -0.151243,0.187052 -0.534565,0.339177 -0.779159,0.403459 -0.130801,-0.520537 -0.239031,-1.021697 -0.269354,-1.556204 -0.06084,-1.072383 0.19304,-2.180194 0.307891,-3.246909 0.188683,-1.7521234 0.331037,-3.5268358 0.625641,-5.267489 0.103401,-0.6108794 0.207823,-1.226408 0.279951,-1.8411298 0.03191,-0.2716043 0.0043,-0.6255576 0.09285,-0.8829294 0.05008,-0.145475 0.479684,-0.1909533 0.626629,-0.2307 0.05516,-0.014938 0.163181,-0.053879 0.216014,-0.018631 0.05474,0.036599 0.05425,0.1545631 0.05693,0.2100453 0.0096,0.2005834 -0.0086,0.3969545 -0.0353,0.5955908 -0.104529,0.7761071 -0.221867,1.5499035 -0.340196,2.3247042 -0.254933,1.6692779 -0.418071,3.3567726 -0.595952,5.0336719 -0.119689,1.128545 -0.342489,2.264287 -0.311979,3.400613 0.0099,0.362503 0.104303,0.716356 0.126028,1.075895 M 14.535601,3.9870045 c 0.09636,-0.016973 0.361229,0.091238 0.329644,0.2037675 C 14.79763,4.4317894 14.373048,4.5813038 14.247163,4.805281 14.132451,5.0093584 14.073896,5.2614096 13.986967,5.4777191 13.835791,5.8539208 13.660223,6.2214505 13.494222,6.5920447 12.754086,8.2442968 11.648271,9.937052 10.26076,11.203036 9.6734454,11.738917 8.9246751,12.32007 8.0496407,12.355042 7.606109,12.372774 7.1736557,12.204969 6.8282566,11.96047 6.6963277,11.867079 6.4687109,11.730977 6.5893071,11.554354 c 0.069472,-0.101762 0.3907191,-0.451448 0.5337879,-0.43043 0.097934,0.01441 0.1949793,0.133187 0.2737355,0.184914 0.1585265,0.104098 0.3508312,0.187458 0.547515,0.197601 0.3687535,0.01902 0.7172904,-0.201094 1.0318584,-0.351161 1.2940541,-0.61734 2.1531071,-1.8976021 2.9124721,-2.987816 0.670936,-0.9632707 1.227949,-2.0036086 1.711426,-3.0547842 0.188309,-0.4093989 0.365762,-1.0252669 0.935499,-1.1256754 m -1.28456,1.1064696 0.02105,0.038409 h -0.04211 l 0.02105,-0.038409 m 0.23164,0.1344805 -0.189521,-0.076848 c 0.07808,-0.019552 0.146499,0.016973 0.189521,0.076848 m -0.294815,-0.03841 0.273763,0.096062 -0.04212,0.1152761 -0.294814,-0.1152761 0.06316,-0.096062 m 0.08424,0 -0.02108,0.019245 0.02108,-0.019245 m 0.996752,0.012825 0.007,0.012825 -0.007,-0.012825 m -1.080988,0.083248 0.02105,0.019245 -0.02105,-0.019245 m -0.08424,0.038409 0.27376,0.1152761 -0.06317,0.076857 -0.0421,0.1729097 -0.105306,-0.019246 -0.02108,0.057654 -0.06316,-0.057654 0.105306,-0.019245 v -0.019175 h -0.08424 l 0.04212,-0.057655 -0.126352,0.019246 v -0.09606 h 0.04211 l -0.02107,-0.038409 h 0.06317 V 5.4392755 5.3239994 m 0.231641,0 0.02106,0.019246 -0.02106,-0.019246 m -0.20357,0.1280965 0.007,0.012825 -0.007,-0.012825 m 0.07022,0.012825 0.01402,0.00678 -0.01402,-0.00678 m 0.0702,0.012825 -0.04211,0.057654 0.04211,-0.057654 m -0.210579,0.057654 0.06318,-0.038409 -0.06318,0.038409 m 0.112305,-0.00605 0.007,0.012825 -0.007,-0.012825 m 0.0351,0.044827 v 0.038409 h 0.04211 V 5.574174 h -0.04211 m -0.168465,0.038409 -0.02106,0.038409 0.06317,-0.019245 -0.02105,0.057654 -0.105294,-0.038409 V 5.631747 l 0.08424,-0.019246 m 0.08423,0.076848 0.02105,0.019245 -0.02105,-0.019245 m 0.08424,0.019245 0.02106,0.057654 -0.06316,-0.038409 0.04211,-0.019246 m 0.926566,0.4803153 v 0.057656 h 0.02105 l -0.02105,-0.057656 m 0,0.1152738 0.02105,0.019245 -0.02105,-0.019245 m -0.02108,0.076847 v 0.076847 h 0.02108 l -0.02108,-0.076847 m -0.02105,0.1921226 v 0.076847 h 0.02105 l -0.02105,-0.076847 m 0,0.1152784 -0.02105,0.1537015 h 0.02105 v -0.153689 m -0.02105,0.1921228 -0.02108,0.076859 h 0.02108 v -0.076859 m -0.02108,0.096058 v 0.076859 h 0.02108 l -0.02108,-0.076859 M 14.03019,7.0919047 V 7.245606 h 0.02106 L 14.03019,7.091905 m -0.02105,0.1729171 -0.02105,0.1921224 h 0.02105 V 7.2648267 M 13.98809,7.4761625 V 7.57222 h 0.02105 L 13.98809,7.476163 m -0.01402,0.1665108 0.007,0.012825 -0.007,-0.012825 m 0,0.09607 0.007,0.012825 -0.007,-0.012825 m -0.007,0.064068 -0.02105,0.057661 h 0.02105 v -0.057661 m -0.04211,0.096069 0.02106,0.057649 h 0.02105 l -0.04211,-0.057649 m 0.007,0.1665154 0.007,0.012825 -0.007,-0.012825 m -0.007,0.044821 0.02106,0.019241 -0.02106,-0.019241 m 0,0.076853 0.02106,0.019241 -0.02106,-0.019241 m -0.01402,0.051248 0.007,0.012825 -0.007,-0.012825 m -0.007,0.064077 0.02105,0.019241 -0.02105,-0.019241 m 0,0.038408 -0.04211,0.3266131 h 0.02108 l 0.02108,-0.3266131 m -0.06317,0.3650331 -0.02108,0.1921305 h 0.02108 L 13.88294,8.7058363 H 13.84082 M 13.81974,8.9171792 V 9.090087 h 0.02108 l -0.021,-0.1729078 m -0.02106,0.2113354 v 0.057649 h 0.02106 l -0.02109,-0.057649 m 0,0.096056 0.02108,0.019241 -0.02108,-0.019241 m -0.02107,0.057662 v 0.096056 h 0.02107 l -0.02107,-0.096056 m -0.02106,0.2305516 -0.02105,0.057662 0.02105,-0.057662 m 0,0.1152738 -0.02105,0.057649 0.02105,-0.057649 M 13.73555,9.704897 13.7566,9.724134 13.73555,9.704897 m 0.007,0.051233 0.007,0.012867 -0.007,-0.012867 m -0.02811,0.063995 v 0.076851 h 0.02108 L 13.71444,9.820125 m 0,0.09606 0.02108,0.01925 -0.02108,-0.01925 m 0.007,0.051248 0.007,0.012867 -0.007,-0.012867 m -0.02803,0.04484 -0.02108,0.192121 h 0.02108 v -0.192113 m -0.02108,0.211336 -0.02105,0.153697 0.02105,-0.153697 m -0.02105,0.172908 -0.02105,0.11527 h 0.02105 v -0.11527 m -5.727855,0.07685 -0.042119,0.0384 0.042119,-0.0384 m -0.042119,0.07685 -0.042119,0.09606 h -0.02106 l 0.063182,-0.09606 m 5.748918,0.01925 v 0.115269 h 0.02105 l -0.02105,-0.115269 m -5.8331553,0.134492 -0.021063,0.01925 0.021063,-0.01925 m 5.8120943,0.0384 v 0.05767 h 0.02105 l 0.02105,-0.05767 h -0.04211 m -5.8752682,0.07685 -0.021053,0.01924 0.021053,-0.01924 m -0.021053,0.0384 -0.021064,0.01925 0.021064,-0.01925 m 5.8963252,0 0.02106,0.01925 -0.02106,-0.01925 m -5.9173853,0.0384 -0.042119,0.0384 0.042119,-0.0384 m 5.9033413,0.08967 0.007,0.01274 -0.007,-0.01274 m 0,0.07684 0.007,0.01288 -0.007,-0.01288 m -0.02811,0.06407 v 0.07685 h 0.02108 l 0.02105,-0.07685 h -0.04211 m 0,0.09606 0.02108,0.01924 -0.02108,-0.01924 m 0,0.0384 -0.02105,0.05767 0.02105,-0.05767 m -0.02105,0.07685 -0.02106,0.268978 h 0.02106 V 11.33791 m -0.04211,0.307406 -0.02108,0.172911 h 0.02108 v -0.172911 m -0.02108,0.192122 -0.02108,0.172911 c 0.0556,-0.0443 0.04832,-0.113557 0.02108,-0.172911 m 0.737041,2.43998 v 0.05766 c -0.169159,0 -0.704799,0.07666 -0.80021,-0.05766 h 0.800212 m -13.98271803,0.09605 -0.021064,0.05767 0.021064,-0.05767 m 13.99676503,0.05123 -0.007,0.01288 0.007,-0.01288 m 1.249453,0.544348 -0.02106,0.01925 0.02106,-0.01925 m -0.04211,0.01925 -0.02108,0.01924 0.02108,-0.01924 m -0.04211,0.01924 -0.02106,0.01918 0.02106,-0.01918 m -0.04212,0.01918 -0.02106,0.01925 0.02106,-0.01925 m -0.04211,0.01925 -0.02108,0.01921 0.02108,-0.01921 m -0.06317,0.01921 -0.02106,0.01925 0.02106,-0.01925 m -0.105295,0.05766 v 0.01918 l -0.06316,0.01924 0.06316,-0.03841 m -0.08424,0.03841 -0.02106,0.01925 0.02106,-0.01925 m -0.04211,0.01925 -0.02105,0.01925 0.02105,-0.01925 m -0.189526,0.07685 -0.02107,0.01924 z"
       id="path1653-4" />
  </g>
</svg>
