<?xml version="1.0" encoding="UTF-8" standalone="no"?>
<svg
   xmlns:dc="http://purl.org/dc/elements/1.1/"
   xmlns:cc="http://creativecommons.org/ns#"
   xmlns:rdf="http://www.w3.org/1999/02/22-rdf-syntax-ns#"
   xmlns:svg="http://www.w3.org/2000/svg"
   xmlns="http://www.w3.org/2000/svg"
   xmlns:sodipodi="http://sodipodi.sourceforge.net/DTD/sodipodi-0.dtd"
   xmlns:inkscape="http://www.inkscape.org/namespaces/inkscape"
   width="2000"
   height="700"
   viewBox="0 0 529.16664 185.20834"
   version="1.1"
   id="svg866"
   inkscape:version="1.0.2-2 (e86c870879, 2021-01-15)"
   sodipodi:docname="mini.svg"
   inkscape:export-filename="E:\2021\mini\images\mini.png"
   inkscape:export-xdpi="96"
   inkscape:export-ydpi="96">
  <defs
     id="defs860" />
  <sodipodi:namedview
     id="base"
     pagecolor="#ffffff"
     bordercolor="#666666"
     borderopacity="1.0"
     inkscape:pageopacity="0.0"
     inkscape:pageshadow="2"
     inkscape:zoom="0.7005"
     inkscape:cx="1000"
     inkscape:cy="350"
     inkscape:document-units="px"
     inkscape:current-layer="layer1"
     inkscape:document-rotation="0"
     showgrid="false"
     units="px"
     inkscape:window-width="1600"
     inkscape:window-height="837"
     inkscape:window-x="-8"
     inkscape:window-y="-8"
     inkscape:window-maximized="1" />
  <metadata
     id="metadata863">
    <rdf:RDF>
      <cc:Work
         rdf:about="">
        <dc:format>image/svg+xml</dc:format>
        <dc:type
           rdf:resource="http://purl.org/dc/dcmitype/StillImage" />
        <dc:title></dc:title>
      </cc:Work>
    </rdf:RDF>
  </metadata>
  <g
     inkscape:label="Layer 1"
     inkscape:groupmode="layer"
     id="layer1">
    <path
       style="fill:#4285f4;fill-opacity:1;stroke:none;stroke-width:0.193703"
       d="m 28.319466,31.990191 3.238191,0.150901 v 0.150858 l -1.494569,0.150295 c 0.151026,0.453819 -0.03114,1.071123 0.284264,1.480808 0.451347,0.592274 1.698604,1.049114 2.412469,1.531867 1.279859,0.865222 2.381821,1.849606 3.31594,2.862034 4.26844,4.626318 6.848747,9.757466 9.597211,14.761931 0.912225,1.66103 3.20957,4.284323 2.93333,6.025296 -0.318181,2.00539 -1.701015,4.072796 -2.50836,6.025295 -1.852019,4.480115 -3.838274,8.940941 -5.783649,13.40626 -5.197811,11.932077 -9.874996,23.961544 -15.338694,35.850494 -2.513031,5.46841 -4.729665,11.00432 -6.569966,16.56958 -0.702396,2.12409 -2.356108,5.09423 -1.544327,7.23038 0.967722,-0.20763 1.534464,-0.40054 1.494561,-1.05444 2.754444,-0.63825 6.291448,-0.30113 9.216387,-0.30113 -0.139398,1.09568 0.231176,2.96174 -0.7154,3.91057 -1.915101,1.92012 -7.661762,1.02703 -10.493719,0.60843 -0.586384,1.48945 0.139399,2.76618 1.351142,4.06706 0.968096,1.03923 1.767668,2.0819 3.391411,2.81666 5.334695,2.41418 13.981628,1.34951 19.917536,0.47751 2.333225,-0.34258 4.667197,-0.69772 6.97453,-1.09917 0.677539,-0.11774 2.255781,-0.32896 1.722221,-0.95155 -1.637247,-1.90954 -5.450374,-0.8238 -7.949478,-0.40357 -5.235908,0.87983 -11.246233,1.68913 -16.689145,1.15533 -1.648163,-0.16151 -4.651294,-0.39463 -5.521963,-1.42063 -0.582717,-0.68672 1.353357,-1.52242 2.034662,-1.92973 2.915388,-1.74281 5.363185,-2.96806 9.465503,-3.16391 -0.249102,-1.84671 -1.069099,-3.53425 -0.992638,-5.42272 0.29783,-7.35689 3.745352,-14.55288 6.367042,-21.69108 3.490506,-9.50429 7.17882,-18.9807 10.786912,-28.469534 1.424524,-3.746489 1.996434,-8.522325 5.121038,-11.899954 2.807781,-3.03522 8.1598,-3.656431 12.837243,-1.500274 2.046747,0.94356 -0.99239,2.113849 -2.213484,2.812923 -1.29503,0.741379 -3.348989,1.645945 -4.149365,2.617195 -0.752707,0.913743 -0.733286,2.157407 -1.055098,3.149888 -0.747529,2.30544 -1.462197,4.639162 -2.320594,6.929095 -4.833132,12.895171 -8.935882,26.000681 -12.81726,39.013761 -0.919626,3.08374 -1.473596,6.21902 -1.826798,9.3392 -0.113442,0.99995 0.877266,2.84156 0.125215,3.69957 -1.078105,1.22975 -4.967438,1.80362 -6.873229,2.47637 2.15016,1.68375 6.958134,2.30621 10.212784,2.83926 1.321663,0.21658 2.632911,0.54848 3.985464,0.32426 -1.30724,-0.98042 -3.348559,-1.67334 -4.207386,-2.86198 -1.466945,-2.03007 -1.160048,-4.48313 -0.81678,-6.62781 0.664528,-4.15238 1.693063,-8.27263 3.174922,-12.35188 3.302928,-9.09383 6.003356,-18.28327 9.023071,-27.41509 1.590202,-4.808617 4.43412,-10.016915 4.782573,-14.91257 1.535633,1.053491 1.951356,3.035692 2.596524,4.368284 1.254457,2.590633 2.797552,5.170023 4.428631,7.682249 4.427592,6.819632 9.486406,13.471237 16.223358,19.582207 4.00834,3.63601 8.548275,7.12736 14.613417,9.58641 12.985174,5.26474 27.629544,0.35793 37.363764,-5.5193 15.82656,-9.55552 28.15139,-21.322935 37.44077,-33.591033 3.1251,-4.12746 7.34692,-8.640538 8.89033,-13.105031 h 0.2491 l -0.7473,3.916475 h 0.24912 l 0.99639,-5.27214 h -0.2491 v 1.054436 h -0.2491 v -1.355724 h 0.74722 v -0.602519 h -0.24911 v 0.452042 h -0.2491 l 0.74729,-0.903801 -0.15478,-1.549442 0.5531,-2.125974 2.83966,-0.240822 h 7.47276 c -0.35888,5.119842 -1.84351,10.26726 -2.6979,15.364501 -1.71901,10.253887 -3.40312,20.510433 -5.275,30.754612 -1.69263,9.26176 -3.48533,18.52072 -3.48533,27.84141 h -9.4655 l -0.74722,-0.60259 v -0.30113 l 0.74722,-0.15086 -0.74722,-0.15089 0.24911,-0.45205 -0.49821,-0.45203 c -1.44129,1.53825 -0.57406,4.75938 -0.30773,6.47721 0.95724,6.17997 4.47667,15.66348 17.74406,14.88696 5.25559,-0.30767 10.22024,-1.84718 14.69642,-3.44059 2.1763,-0.77457 5.68999,-1.97451 1.74362,-3.05663 -1.06811,-0.29287 -2.14468,0.36921 -2.98907,0.6941 -2.1522,0.82847 -4.38953,1.60985 -6.72549,2.23438 -3.98725,1.06585 -9.09163,2.10958 -13.45096,1.36726 -1.65575,-0.28165 -2.95547,-0.95096 -4.48363,-1.3881 0.97068,-0.9907 2.14239,-1.74747 3.48724,-2.56074 1.22528,-0.74097 2.6035,-1.92552 4.23359,-2.33295 6.43302,-1.60773 13.4036,2.31668 20.17744,1.42914 v -0.30113 c -4.08488,-1.88214 -5.43121,-4.57395 -6.24723,-7.53161 -1.33863,-4.85127 -1.29233,-9.87835 -0.52043,-14.76198 3.22154,-20.38749 6.40138,-40.858452 11.00237,-61.156767 0.93338,-4.117945 1.96159,-8.225533 2.77862,-12.351821 0.52533,-2.653408 1.21881,-5.318414 0.66985,-7.983533 -0.444,-2.153435 -3.28325,-6.171262 -7.18481,-6.627809 -0.39957,1.606364 -2.51957,3.169593 -4.23457,4.368345 0.53087,-1.35176 1.91004,-3.351 3.7364,-4.217702 -0.77944,-1.235867 -4.35146,-1.17516 -6.22735,-1.196994 -5.95654,-0.06924 -13.52569,1.254313 -18.93098,2.70323 l 3.7364,2.259466 -2.74001,-0.150907 c 0.24973,-0.559138 0.16958,-0.831667 -0.74728,-1.054437 -1.14087,2.021487 -1.48958,4.244505 -2.30037,6.326519 -1.27511,3.274618 -3.06731,6.494978 -5.02917,9.640487 -7.7136,12.366911 -19.37508,23.820434 -31.77161,34.645473 -4.14789,3.621937 -8.80714,6.980277 -13.95537,10.09236 -3.36299,2.0329 -7.46333,4.14794 -12.20551,4.83542 -2.08166,0.30175 -3.90525,-0.005 -5.97821,-0.0179 l -4.23457,5.72408 -1.24545,-0.30114 4.98186,-5.87465 C 100.36235,102.55574 96.253312,95.940238 92.016759,89.981094 82.587392,76.717484 77.023935,62.667538 69.502335,49.009098 66.535643,43.621756 64.143648,37.79905 59.305274,32.891446 57.553146,31.114381 55.476742,28.692914 51.982962,28.071234 l -0.74728,1.205023 0.498205,-0.150858 v 0.150858 l -2.74002,2.711391 c -0.281772,-1.05876 0.754002,-2.117815 1.606114,-3.012678 0.325584,-0.341992 1.026547,-0.861375 0.471698,-1.245968 -1.042641,-0.722802 -4.444288,-0.419511 -5.814299,-0.301154 -4.516988,0.390508 -8.9989,1.410986 -12.952733,2.774818 -1.400901,0.483408 -3.226217,0.886817 -3.985472,1.784934 m 173.367905,7.230317 v 2.862036 h -0.2491 l 0.2491,-2.862036 m 0,3.012677 v 0.452042 h -0.2491 l 0.2491,-0.452042 m -3.73636,99.718586 c -1.789,1.46656 -6.32319,2.65927 -9.21644,3.16327 -1.5471,-4.0812 -2.8274,-8.01046 -3.18608,-12.20118 -0.71966,-8.40783 2.28341,-17.09345 3.64194,-25.45685 2.23186,-13.737249 3.91573,-27.651592 7.4005,-41.298905 1.22307,-4.789503 2.45829,-9.615457 3.31144,-14.435083 0.37736,-2.129469 0.0492,-4.904583 1.09826,-6.922467 0.59255,-1.140583 5.67403,-1.497135 7.41221,-1.808773 0.65242,-0.117172 1.9302,-0.42244 2.55517,-0.146157 0.64764,0.286951 0.64169,1.211829 0.67332,1.646832 0.11402,1.572644 -0.10113,3.112259 -0.41745,4.669632 -1.23649,6.084945 -2.62439,12.15177 -4.02405,18.226471 -3.01552,13.087701 -4.94524,26.318231 -7.04934,39.46569 -1.41582,8.84816 -4.05119,17.75278 -3.69028,26.66195 0.11532,2.84214 1.23354,5.61649 1.49086,8.4354 m -11.9564,-85.045663 c 1.13959,-0.13308 4.27288,0.715348 3.89927,1.597607 -0.79981,1.88966 -5.82201,3.061905 -7.31109,4.817963 -1.35681,1.60003 -2.04952,3.5762 -3.0778,5.272142 -1.78819,2.949549 -3.86492,5.831104 -5.82848,8.736688 -8.75484,12.954216 -21.83516,26.225993 -38.24756,36.151733 -6.94717,4.20149 -15.80413,8.75792 -26.15459,9.03211 -5.2464,0.13906 -10.361764,-1.17662 -14.44737,-3.09356 -1.560543,-0.73239 -4.252957,-1.79932 -2.82646,-3.18409 0.821768,-0.79789 4.62169,-3.53951 6.314011,-3.37473 1.158506,0.11298 2.306349,1.04432 3.237939,1.4498 1.87514,0.81617 4.14985,1.46975 6.47636,1.54927 4.36186,0.14907 8.48458,-1.57666 12.20553,-2.75322 15.30692,-4.84016 25.46839,-14.877847 34.45064,-23.42549 7.93629,-7.552376 14.525,-15.708974 20.24391,-23.950549 2.22743,-3.209825 4.32647,-8.038436 11.06569,-8.825674 m -15.19464,8.675095 0.2491,0.301135 h -0.4982 l 0.2491,-0.301135 m 2.74001,1.054381 -2.24179,-0.602517 c 0.92358,-0.153242 1.7329,0.13308 2.24179,0.602517 m -3.4873,-0.301136 3.23825,0.753154 -0.4982,0.903799 -3.48724,-0.903799 0.74722,-0.753154 m 0.9964,0 -0.2491,0.150854 0.2491,-0.150854 m 11.79028,0.100592 0.0833,0.100591 -0.0833,-0.100591 m -12.78668,0.652685 0.24911,0.150898 -0.24911,-0.150898 m -0.99634,0.301136 3.23819,0.903795 -0.74728,0.602579 -0.49821,1.355663 -1.24545,-0.150853 -0.2491,0.45204 -0.7473,-0.45204 1.24546,-0.150854 v -0.15034 h -0.99639 l 0.4982,-0.452043 -1.49456,0.150853 v -0.75315 h 0.4982 l -0.2491,-0.301136 h 0.74728 V 68.28976 67.385961 m 2.74002,0 0.2491,0.150854 -0.2491,-0.150854 m -2.40797,1.004322 0.0833,0.100591 -0.0833,-0.100591 m 0.83046,0.100591 0.1659,0.05303 -0.1659,-0.05303 m 0.83022,0.100591 -0.4982,0.452043 0.4982,-0.452043 m -2.4909,0.452043 0.74729,-0.301136 -0.74729,0.301136 m 1.32839,-0.04749 0.0833,0.100592 -0.0833,-0.100592 m 0.41501,0.351458 v 0.301136 h 0.4982 v -0.301134 h -0.4982 m -1.99273,0.301136 -0.2491,0.301135 0.74727,-0.150853 -0.2491,0.45204 -1.24545,-0.301135 v -0.150839 l 0.99634,-0.150899 m 0.99639,0.602519 0.24911,0.150854 -0.24911,-0.150854 m 0.99634,0.150854 0.2491,0.452042 -0.74728,-0.301136 0.49821,-0.150853 m 10.96006,3.765833 v 0.45204 h 0.2491 l -0.2491,-0.45204 m 0,0.903792 0.2491,0.150899 -0.2491,-0.150899 m -0.2491,0.60252 v 0.602517 h 0.2491 l -0.2491,-0.602517 m -0.24911,1.506312 v 0.602516 h 0.24911 l -0.24911,-0.602516 m 0,0.903794 -0.2491,1.205083 h 0.2491 V 78.08374 m -0.2491,1.506312 -0.2491,0.602577 h 0.2491 v -0.602577 m -0.2491,0.753152 v 0.602578 h 0.2491 l -0.2491,-0.602578 m -0.2491,0.903801 v 1.205078 h 0.2491 l -0.2491,-1.205087 m -0.24911,1.355724 -0.2491,1.506308 h 0.2491 v -1.506257 m -0.2491,1.656947 v 0.753158 h 0.2491 l -0.2491,-0.753158 m -0.16589,1.305498 0.0833,0.100591 -0.0833,-0.100591 m 0,0.753216 0.0833,0.100591 -0.0833,-0.100591 m -0.0826,0.502365 -0.2491,0.45204 h 0.2491 v -0.45204 m -0.4982,0.753158 0.2491,0.452043 h 0.2491 l -0.4982,-0.452043 m 0.0833,1.30555 0.0833,0.100592 -0.0833,-0.100592 m -0.0833,0.351458 0.2491,0.150854 -0.2491,-0.150854 m 0,0.602517 0.2491,0.150899 -0.2491,-0.150899 m -0.16584,0.401783 0.0833,0.100591 -0.0833,-0.100591 m -0.0833,0.502365 0.2491,0.150854 -0.2491,-0.150854 m 0,0.301134 -0.49821,2.560754 h 0.24911 l 0.2491,-2.560754 m -0.74729,2.861982 -0.2491,1.506367 h 0.2491 l 0.4982,-1.506367 h -0.4982 m -0.2491,1.657008 v 1.355666 h 0.2491 l -0.2491,-1.355666 m -0.2491,1.656956 v 0.45204 h 0.2491 l -0.24918,-0.45204 m 0,0.753158 0.24911,0.150853 -0.24911,-0.150853 m -0.2491,0.452043 v 0.75315 h 0.2491 l -0.2491,-0.75315 m -0.2491,1.807591 -0.2491,0.45205 0.2491,-0.45205 m 0,0.9038 -0.2491,0.45204 0.2491,-0.45204 m -0.2491,0.60252 0.2491,0.15085 -0.2491,-0.15085 m 0.0833,0.40172 0.0833,0.10059 -0.0833,-0.10059 m -0.33236,0.50174 v 0.60258 h 0.24911 l -0.24911,-0.60258 m 0,0.75316 0.24911,0.15085 -0.24911,-0.15085 m 0.0833,0.40178 0.0833,0.10059 -0.0833,-0.10059 m -0.33174,0.35145 -0.2491,1.50632 h 0.2491 v -1.50632 m -0.2491,1.65695 -0.24911,1.20503 0.24911,-1.20503 m -0.24911,1.35567 -0.2491,0.9038 h 0.2491 v -0.9038 m -67.75292,0.60252 -0.49821,0.30114 0.49821,-0.30114 m -0.49821,0.60258 -0.49821,0.75315 h -0.2491 l 0.74729,-0.75315 m 68.00204,0.15085 v 0.9038 h 0.2491 l -0.2491,-0.9038 m -68.99844,1.05444 -0.2491,0.15085 0.2491,-0.15085 m 68.74932,0.30113 v 0.45205 h 0.24911 l 0.2491,-0.45205 H 175.035 m -69.4966,0.60252 -0.2491,0.1509 0.2491,-0.1509 m -0.2491,0.30114 -0.2491,0.15085 0.2491,-0.15085 m 69.74565,0 0.24912,0.15085 -0.24912,-0.15085 m -69.99477,0.30113 -0.4982,0.30114 0.4982,-0.30114 m 69.82866,0.70304 0.0833,0.10004 -0.0833,-0.10004 m 0,0.60252 0.0833,0.10059 -0.0833,-0.10059 m -0.33238,0.50236 v 0.60258 h 0.2491 l 0.2491,-0.60258 h -0.4982 m 0,0.75315 0.2491,0.1509 -0.2491,-0.1509 m 0,0.30113 -0.2491,0.45205 0.2491,-0.45205 m -0.2491,0.60252 -0.2491,2.10888 h 0.2491 v -2.10888 m -0.49821,2.41017 -0.2491,1.35566 h 0.2491 v -1.35566 m -0.2491,1.5063 -0.24911,1.35568 c 0.65782,-0.34733 0.57165,-0.89038 0.24911,-1.35568 m 8.71821,19.13028 v 0.45203 c -2.00093,0 -8.33683,0.60104 -9.46543,-0.45203 h 9.46543 m -165.396918,0.75316 -0.249103,0.45204 0.249103,-0.45204 m 165.563098,0.40172 -0.0833,0.10059 0.0833,-0.10059 m 14.77935,4.26787 -0.2491,0.15085 0.2491,-0.15085 m -0.4982,0.15085 -0.2491,0.15091 0.2491,-0.15091 m -0.49821,0.15091 -0.2491,0.15028 0.2491,-0.15028 m -0.4982,0.15028 -0.24911,0.15086 0.24911,-0.15086 m -0.49821,0.15086 -0.2491,0.15085 0.2491,-0.15085 m -0.74728,0.15085 -0.24911,0.15085 0.24911,-0.15085 m -1.24545,0.45205 v 0.1503 l -0.74729,0.15085 0.74729,-0.30114 m -0.9964,0.30114 -0.2491,0.15089 0.2491,-0.15089 m -0.4982,0.15089 -0.24911,0.15085 0.24911,-0.15085 m -2.24185,0.60252 -0.2491,0.15085 z"
       id="path1653" />
    <path
       style="fill:#000000;stroke-width:0.264583"
       id="path1669"
       d="" />
    <path
       style="fill:#ff0000;stroke-width:0.568263"
       d="m 454.00354,122.4937 v -2.7276 l 6.15248,-0.19285 c 4.43224,-0.139 6.76265,-0.41529 8.33494,-0.98848 l 2.18248,-0.79566 0.21249,-16.73789 c 0.24157,-19.027312 0.2111,-19.142569 -5.22948,-19.880309 -1.71289,-0.232251 -5.0354,-0.423366 -7.38343,-0.424601 l -4.26913,-0.0015 v -2.736711 -2.736772 l 15.24686,-0.246435 c 8.3858,-0.135559 20.09537,-0.351951 26.02144,-0.480842 l 10.77448,-0.234408 v 20.902089 c 0,23.578649 -0.0693,23.279189 5.42384,24.023869 1.71293,0.23225 5.03542,0.42332 7.38345,0.42455 l 4.26916,0.002 v 2.77983 2.77982 h -34.55967 -34.55956 z m 26.4279,-58.158328 c -9.38043,-2.223829 -13.66786,-6.804907 -10.802,-11.541874 1.31969,-2.181299 8.05605,-5.471074 12.52274,-6.115569 7.79168,-1.124262 13.85396,-0.365088 19.43874,2.434409 6.15961,3.087597 7.68625,6.630811 4.38958,10.187524 -4.6301,4.995159 -16.14559,7.264769 -25.54906,5.03551 z"
       id="path1687" />
    <path
       style="fill:#db4437;fill-opacity:1;stroke-width:0.554019"
       d="m 232.57352,140.73682 v -2.66669 l 5.98154,-0.18845 c 4.30912,-0.13587 6.5748,-0.40598 8.10341,-0.9664 l 2.12186,-0.7779 0.20619,-16.36411 c 0.23458,-18.60241 0.20494,-18.71509 -5.08418,-19.43636 -1.6653,-0.22707 -4.89553,-0.413865 -7.17831,-0.415037 l -4.15053,-0.0015 V 97.244665 94.569006 L 247.39678,94.328 c 8.15284,-0.132477 19.53711,-0.344119 25.29843,-0.470111 l 10.47514,-0.229168 v 20.435309 c 0,23.0521 -0.0657,22.75933 5.27322,23.48739 1.66531,0.22707 4.89554,0.41387 7.17831,0.41504 l 4.15055,0.002 v 2.71775 2.71774 H 266.17294 232.5735 Z m 25.69371,-56.859566 c -9.11985,-2.174176 -13.28819,-6.652943 -10.5019,-11.28413 1.28303,-2.132584 7.83226,-5.348893 12.17479,-5.979001 7.57524,-1.099153 13.46903,-0.356947 18.89866,2.380054 5.9885,3.018636 7.47275,6.482733 4.26764,9.960018 -4.50147,4.883615 -15.697,7.102545 -24.83919,4.923059 z"
       id="path1685" />
    <path
       style="fill:#0f9d58;fill-opacity:1;stroke-width:0.153497"
       d="m 369.20492,107.56404 c -5.17976,-7.989001 -9.16986,-15.710641 -16.88589,-32.677312 -5.31631,-11.689977 -10.75554,-22.850675 -11.13644,-22.850675 -0.067,0 -0.10426,14.02041 -0.0832,31.156496 l 0.0374,31.156511 0.43203,0.90877 c 0.52977,1.11403 2.0661,2.73597 3.58472,3.78447 0.6102,0.42127 2.1312,1.29725 3.38009,1.94657 1.80427,0.93809 2.28084,1.25224 2.32004,1.52936 0.1197,0.84455 1.15167,0.79952 -18.32726,0.79952 -19.49282,0 -18.44578,0.0463 -18.32723,-0.80505 0.0284,-0.19469 0.21928,-0.44254 0.42685,-0.55041 0.20758,-0.10791 1.13485,-0.57643 2.06041,-1.04137 3.37323,-1.69449 5.85076,-3.75926 6.77638,-5.64748 l 0.45315,-0.9244 0.0374,-42.318027 0.0373,-42.318032 -0.47904,-0.419973 c -2.34176,-2.052111 -5.76353,-4.483679 -8.13325,-5.779596 -5.37778,-2.940908 -10.91125,-4.049275 -15.26743,-3.058094 -2.37964,0.541465 -4.99503,2.240347 -6.3531,4.126837 -1.29297,1.79602 -1.79334,3.320579 -1.79334,5.46424 0,2.445036 1.00742,5.294518 2.76725,7.827268 0.45973,0.661789 0.71873,1.152219 0.58002,1.098697 -0.1375,-0.05303 -0.79437,-0.427745 -1.45904,-0.83229 -7.2826,-4.433392 -9.00306,-13.132188 -3.91211,-19.780118 2.17894,-2.845337 5.40328,-4.895592 9.33365,-5.934986 5.05329,-1.336363 10.48459,-0.91426 16.94129,1.316637 12.47344,4.30977 23.59176,13.746023 34.46118,29.24753 5.96163,8.502311 9.84717,15.076561 20.14251,34.081089 6.89085,12.720094 9.76333,17.761544 13.06417,22.92873 7.24421,11.340098 13.89704,17.944768 20.54898,20.400118 2.29731,0.84797 6.25464,1.59462 9.55959,1.80367 9.84561,0.62264 16.6612,-2.96107 20.42713,-10.74085 1.34001,-2.76816 2.28792,-6.37523 2.51725,-9.57869 l 0.10151,-1.41631 0.36247,1.48178 c 0.30191,1.23282 0.37563,2.00593 0.4409,4.60135 0.0678,2.70985 0.0373,3.3741 -0.24232,5.05807 -0.89597,5.42281 -3.50674,10.64515 -7.26074,14.52366 -1.79764,1.85732 -3.83345,3.50243 -4.1221,3.33094 -0.10385,-0.0617 -0.13808,-0.0543 -0.0761,0.0172 0.31555,0.35953 -5.1614,3.19902 -5.73304,2.97254 -0.11599,-0.0456 -0.17525,-0.0259 -0.13144,0.0493 0.0929,0.1554 -1.53262,0.67232 -3.46254,1.10089 -2.79748,3.22075 -21.30094,22.5782 -5.83147,6.18116 5.83147,-6.18116 1.89532,-6.0265 5.83147,-6.18116 l 3.46254,-1.10089 c 0,0 -1.75017,1.87185 -10.20369,2.52402 -7.91019,0.61023 -23.24807,1.41056 -40.87172,-27.46066 z m 42.86005,8.64488 c -5.06711,-1.739 -9.738,-6.06163 -14.90337,-13.79216 -3.85425,-5.768253 -6.80037,-11.217256 -14.29453,-26.438192 -8.54491,-17.3551 -11.75431,-23.420101 -16.26004,-30.727584 -5.07086,-8.224028 -9.65868,-14.13666 -14.97027,-19.293221 -3.23171,-3.137388 -5.75032,-5.129328 -8.96776,-7.09248 -0.75028,-0.457777 -1.32334,-0.83238 -1.27346,-0.83238 0.30379,0 3.80593,1.575881 5.33184,2.39911 5.06087,2.730267 8.71789,5.557128 13.22371,10.221926 8.57925,8.881893 16.01652,20.735254 26.7261,42.59501 0.90364,1.844448 2.3268,4.722247 3.16263,6.395075 l 1.51965,3.04161 -0.0325,-26.594184 -0.0324,-26.594185 -0.36669,-0.779886 c -0.48022,-1.020487 -2.33682,-2.924762 -3.86267,-3.961783 -0.66468,-0.451734 -2.17711,-1.313574 -3.36102,-1.91524 -2.16354,-1.099518 -2.31461,-1.239805 -1.99619,-1.854114 0.15315,-0.295708 0.51593,-0.301751 18.24768,-0.301751 13.86957,0 18.13357,0.04378 18.27256,0.187354 0.0996,0.102742 0.18131,0.345292 0.18131,0.53875 0,0.296943 -0.3123,0.507731 -2.00299,1.353111 -3.87196,1.936042 -6.45129,4.068139 -7.38383,6.103544 l -0.43158,0.942061 -0.002,41.022107 -0.002,41.022072 1.63727,1.63778 c 0.9005,0.90078 2.04006,1.9499 2.53236,2.33143 1.16422,0.90225 1.21245,0.94571 1.03858,0.93644 -0.0788,-0.005 -0.8548,-0.25167 -1.72416,-0.5501 z"
       id="path1703"
       sodipodi:nodetypes="cssscssssssssscccssssssccsssssssssscsscssssscsccscssssssssssscccssssscssscccsscss" />
    <text
       xml:space="preserve"
       style="font-size:32.7366px;line-height:1.25;font-family:sans-serif;fill:#00ff00;stroke-width:2.45525"
       x="150.37045"
       y="206.39844"
       id="text1729"
       transform="scale(1.1682827,0.85595722)"><tspan
         sodipodi:role="line"
         id="tspan1727"
         x="150.37045"
         y="206.39844"
         style="font-style:normal;font-variant:normal;font-weight:normal;font-stretch:normal;font-size:32.7366px;font-family:'Blackadder ITC';-inkscape-font-specification:'Blackadder ITC, Normal';font-variant-ligatures:normal;font-variant-caps:normal;font-variant-numeric:normal;font-variant-east-asian:normal;fill:#00ff00;stroke-width:2.45525">a light weight search engine...</tspan></text>
    <text
       xml:space="preserve"
       style="font-size:37.741px;line-height:1.25;font-family:sans-serif;fill:#d3493c;stroke-width:2.83059;fill-opacity:1;"
       x="4.4666481"
       y="22.74465"
       id="text1729-8"
       transform="scale(1.0253994,0.97522974)"><tspan
         sodipodi:role="line"
         id="tspan1727-5"
         x="4.4666481"
         y="22.74465"
         style="font-style:normal;font-variant:normal;font-weight:normal;font-stretch:normal;font-size:37.741px;font-family:'Blackadder ITC';-inkscape-font-specification:'Blackadder ITC, Normal';font-variant-ligatures:normal;font-variant-caps:normal;font-variant-numeric:normal;font-variant-east-asian:normal;fill:#d3493c;stroke-width:2.83059;fill-opacity:1;">hello...</tspan></text>
  </g>
</svg>
