<?xml version="1.0" encoding="UTF-8" standalone="no"?>
<svg
   xmlns:dc="http://purl.org/dc/elements/1.1/"
   xmlns:cc="http://creativecommons.org/ns#"
   xmlns:rdf="http://www.w3.org/1999/02/22-rdf-syntax-ns#"
   xmlns:svg="http://www.w3.org/2000/svg"
   xmlns="http://www.w3.org/2000/svg"
   xmlns:sodipodi="http://sodipodi.sourceforge.net/DTD/sodipodi-0.dtd"
   xmlns:inkscape="http://www.inkscape.org/namespaces/inkscape"
   width="30"
   height="30"
   viewBox="0 0 7.9374997 7.9375002"
   version="1.1"
   id="svg3317"
   inkscape:version="1.0.2-2 (e86c870879, 2021-01-15)"
   sodipodi:docname="notification.svg">
  <defs
     id="defs3311" />
  <sodipodi:namedview
     id="base"
     pagecolor="#ffffff"
     bordercolor="#666666"
     borderopacity="1.0"
     inkscape:pageopacity="0.0"
     inkscape:pageshadow="2"
     inkscape:zoom="21.566667"
     inkscape:cx="15"
     inkscape:cy="15"
     inkscape:document-units="px"
     inkscape:current-layer="layer1"
     inkscape:document-rotation="0"
     showgrid="false"
     units="px"
     inkscape:window-width="1600"
     inkscape:window-height="837"
     inkscape:window-x="-8"
     inkscape:window-y="-8"
     inkscape:window-maximized="1" />
  <metadata
     id="metadata3314">
    <rdf:RDF>
      <cc:Work
         rdf:about="">
        <dc:format>image/svg+xml</dc:format>
        <dc:type
           rdf:resource="http://purl.org/dc/dcmitype/StillImage" />
        <dc:title></dc:title>
      </cc:Work>
    </rdf:RDF>
  </metadata>
  <g
     inkscape:label="Layer 1"
     inkscape:groupmode="layer"
     id="layer1">
    <path
       style="fill:#ff0000;stroke-width:0.0363519"
       d="M 3.5961696,7.8662193 C 3.322917,7.7743903 3.09819,7.5264267 3.0389555,7.2513875 L 3.0157297,7.1434979 H 3.8739327 4.732135 L 4.7089092,7.2513875 C 4.6050611,7.7334745 4.0741269,8.0268406 3.5961696,7.8662193 Z M 0.04501785,6.5355995 V 6.3480737 L 0.68400641,5.9538627 1.3229949,5.5596507 1.336069,4.1533715 C 1.3487011,2.7948905 1.3520896,2.738759 1.4363685,2.5018751 1.5825924,2.0907776 1.7383933,1.8573391 2.0817629,1.5348827 2.3390546,1.2932629 2.4632758,1.2064078 2.7080419,1.0969932 L 3.013371,0.96050741 3.0349443,0.78053584 C 3.088385,0.33494042 3.4136046,0.0528637 3.8739059,0.0528637 c 0.4792402,0 0.8487712,0.3443013 0.8487712,0.79081959 0,0.10729026 0.015258,0.12532037 0.141462,0.16711651 0.2254916,0.074683 0.6137748,0.3268411 0.8465971,0.5497926 0.2703923,0.2589248 0.4574809,0.5476581 0.5872195,0.9062517 l 0.1013936,0.2802496 0.012714,1.4029768 0.012714,1.4029773 0.6390046,0.3977364 0.6390052,0.3977376 V 6.5358234 6.723124 H 3.873933 0.04502844 Z"
       id="path3908" />
  </g>
</svg>
