<?xml version="1.0" encoding="UTF-8" standalone="no"?>
<svg
   xmlns:dc="http://purl.org/dc/elements/1.1/"
   xmlns:cc="http://creativecommons.org/ns#"
   xmlns:rdf="http://www.w3.org/1999/02/22-rdf-syntax-ns#"
   xmlns:svg="http://www.w3.org/2000/svg"
   xmlns="http://www.w3.org/2000/svg"
   xmlns:sodipodi="http://sodipodi.sourceforge.net/DTD/sodipodi-0.dtd"
   xmlns:inkscape="http://www.inkscape.org/namespaces/inkscape"
   width="30"
   height="30"
   viewBox="0 0 7.9374999 7.9374999"
   version="1.1"
   id="svg2093"
   inkscape:version="1.0.2-2 (e86c870879, 2021-01-15)"
   sodipodi:docname="web.svg">
  <defs
     id="defs2087" />
  <sodipodi:namedview
     id="base"
     pagecolor="#ffffff"
     bordercolor="#666666"
     borderopacity="1.0"
     inkscape:pageopacity="0.0"
     inkscape:pageshadow="2"
     inkscape:zoom="21.566667"
     inkscape:cx="15"
     inkscape:cy="15"
     inkscape:document-units="px"
     inkscape:current-layer="layer1"
     inkscape:document-rotation="0"
     showgrid="false"
     inkscape:window-width="1600"
     inkscape:window-height="837"
     inkscape:window-x="-8"
     inkscape:window-y="-8"
     inkscape:window-maximized="1"
     units="px" />
  <metadata
     id="metadata2090">
    <rdf:RDF>
      <cc:Work
         rdf:about="">
        <dc:format>image/svg+xml</dc:format>
        <dc:type
           rdf:resource="http://purl.org/dc/dcmitype/StillImage" />
        <dc:title></dc:title>
      </cc:Work>
    </rdf:RDF>
  </metadata>
  <g
     inkscape:label="Layer 1"
     inkscape:groupmode="layer"
     id="layer1">
    <g
       id="g2694"
       transform="matrix(0.18714248,0,0,0.17467118,-5.0090176,-4.7884168)">
      <path
         style="fill:#4885ed;fill-opacity:1;stroke-width:0.264583"
         d="m 45.725308,71.971165 c -5.859708,-0.60718 -11.930502,-4.18948 -15.424912,-9.10207 -1.134197,-1.5945 -2.77911,-4.64379 -2.77911,-5.15182 0,-0.14968 0.514416,-0.27213 1.143147,-0.27213 1.143007,0 1.143261,2.2e-4 2.073602,1.78593 l 0.930455,1.78594 3.482648,0.0738 c 1.915457,0.0406 3.481984,-0.0189 3.481173,-0.13229 -8.2e-4,-0.11337 -0.108319,-0.62284 -0.238906,-1.13216 -0.651894,-2.54257 -0.6933,-2.38125 0.611193,-2.38125 1.112759,0 1.183913,0.0453 1.350587,0.85989 0.09677,0.47294 0.303669,1.30638 0.459778,1.85209 l 0.283834,0.99218 h 3.000828 3.000828 v -1.85208 -1.85208 h 1.190625 1.190628 v 1.85208 1.85208 h 3.014197 3.01421 l 0.45388,-1.85208 0.45388,-1.85208 h 1.16716 c 1.29588,0 1.25529,-0.16008 0.60372,2.38125 -0.13059,0.50932 -0.2381,1.01533 -0.23891,1.12448 -7.9e-4,0.10914 1.51657,0.19822 3.37196,0.19796 l 3.37344,-5.3e-4 0.70947,-1.12401 c 0.39022,-0.6182 0.83375,-1.45142 0.98564,-1.85161 0.24514,-0.64585 0.41067,-0.7276 1.47334,-0.7276 0.65844,0 1.19717,0.12246 1.19717,0.27213 0,0.14967 -0.37122,1.01287 -0.82494,1.91823 -4.26056,8.50154 -13.04675,13.31631 -22.510615,12.33567 z m 1.375145,-5.3979 v -3.04271 h -2.513542 c -1.382448,0 -2.513541,0.0635 -2.513541,0.14109 0,0.46476 1.492938,2.95647 2.324375,3.87938 0.78927,0.8761 2.30025,2.05893 2.636562,2.06396 0.03638,5.3e-4 0.06615,-1.36823 0.06615,-3.04172 z m 4.679263,1.41164 c 0.828177,-0.86716 2.729067,-3.82071 2.729067,-4.24034 0,-0.11771 -1.13109,-0.21401 -2.51354,-0.21401 h -2.513537 v 3.04951 3.0495 l 0.7276,-0.3811 c 0.40018,-0.2096 1.10686,-0.77821 1.57041,-1.26356 z m -10.383078,-0.62392 c -0.514108,-0.80368 -1.163242,-1.9943 -1.442519,-2.64583 l -0.507777,-1.1846 -2.853674,0.0109 -2.853673,0.0108 1.144462,1.03502 c 1.587282,1.43549 3.862834,2.90793 5.596086,3.62105 0.803844,0.33073 1.549353,0.60416 1.656686,0.60761 0.107333,0.003 -0.225483,-0.65127 -0.739591,-1.45496 z m 15.701105,0.36294 c 1.45124,-0.69474 5.61312,-3.70821 5.61312,-4.06426 0,-0.071 -1.25685,-0.12911 -2.793,-0.12911 h -2.793 l -0.55251,1.25677 c -0.30388,0.69123 -0.95661,1.89133 -1.45052,2.6669 -0.85064,1.33574 -0.86607,1.40104 -0.29251,1.23795 0.33303,-0.0947 1.35382,-0.53041 2.26842,-0.96825 z M 27.521286,42.091765 c 0,-0.14967 0.371226,-1.01288 0.824946,-1.918233 3.06781,-6.12153 8.515199,-10.41231 15.221125,-11.98934 2.643493,-0.62166 7.325819,-0.55409 10.015386,0.14454 5.12695,1.33175 9.75862,4.47239 12.69941,8.6112 1.12803,1.58757 2.2828,3.70771 2.62999,4.828643 0.17273,0.55771 0.10763,0.59532 -1.03062,0.59532 -1.08212,0 -1.24521,-0.0796 -1.49117,-0.72761 -0.15189,-0.40018 -0.59542,-1.233403 -0.98564,-1.851613 l -0.70947,-1.124 -3.37344,-4.8e-4 c -1.85539,-2.6e-4 -3.37277,0.0888 -3.37196,0.19796 7.9e-4,0.10914 0.10832,0.61516 0.23891,1.12448 0.65157,2.541333 0.69216,2.381253 -0.60372,2.381253 l -1.16716,10e-6 -0.45388,-1.852093 -0.45388,-1.85208 h -3.01421 -3.014197 v 1.85208 1.852093 h -1.190628 -1.190625 v -1.852093 -1.85208 h -3.000828 -3.000828 l -0.283834,0.99219 c -0.156109,0.5457 -0.363009,1.37914 -0.459778,1.852083 -0.166674,0.81459 -0.237828,0.8599 -1.350587,0.8599 -1.304493,0 -1.263087,0.16132 -0.611193,-2.381253 0.130587,-0.50933 0.238094,-1.0188 0.238906,-1.13216 8.2e-4,-0.11337 -1.565716,-0.1729 -3.481173,-0.13229 l -3.482648,0.0738 -0.930455,1.78594 c -0.930341,1.785723 -0.930595,1.785943 -2.073602,1.785943 -0.628731,0 -1.143147,-0.12246 -1.143147,-0.27213 z m 12.432833,-6.997893 c 0.279277,-0.65153 0.928411,-1.84215 1.442519,-2.64583 0.514108,-0.80368 0.891659,-1.46124 0.839002,-1.46124 -0.05266,0 -0.616725,0.18331 -1.253484,0.40736 -1.652797,0.58155 -4.378111,2.26798 -5.920245,3.66347 l -1.322916,1.19713 2.853673,0.0118 2.853674,0.0119 z m 7.146334,-1.86491 v -3.0495 l -0.727604,0.3811 c -0.400182,0.2096 -1.106863,0.7782 -1.570405,1.26356 -0.828181,0.86716 -2.729074,3.82071 -2.729074,4.24035 0,0.1177 1.131093,0.214 2.513541,0.214 h 2.513542 z m 7.40833,2.83551 c 0,-0.41964 -1.90089,-3.37319 -2.729067,-4.24035 -0.46355,-0.48536 -1.17023,-1.05396 -1.57041,-1.26356 l -0.7276,-0.3811 v 3.0495 3.04951 h 2.513537 c 1.38245,0 2.51354,-0.0963 2.51354,-0.214 z m 7.90375,-0.22387 c -1.15136,-1.38835 -5.60094,-4.16009 -7.58321,-4.72375 -0.57356,-0.16309 -0.55813,-0.0978 0.29251,1.23795 0.49391,0.77557 1.14664,1.97567 1.45052,2.66689 l 0.55251,1.25678 h 2.8254 c 2.59892,0 2.79629,-0.0351 2.46227,-0.43787 z"
         id="path2670-2"
         sodipodi:nodetypes="csssscsssssscccccccccccccsssccsssssccccsssssccsscccscsscccsscssssscsssscsssssssscsscscccccccccccccsssssccssccssssscccsccssssccssscccsssssscss" />
      <path
         style="fill:#000080;stroke-width:0.264583"
         d="m 28.99158,54.70024 c 0,-0.19763 -1.855811,-8.7038 -2.013189,-9.22752 -0.119535,-0.39779 0.04724,-0.46302 1.183779,-0.46302 1.533121,0 1.439341,-0.16479 1.920918,3.37546 0.183256,1.34718 0.408644,2.35921 0.500863,2.24896 0.09222,-0.11026 0.447977,-1.42085 0.790573,-2.91244 l 0.622902,-2.71198 h 1.000421 c 1.112881,0 0.955342,-0.30409 1.976785,3.81562 0.525238,2.11839 0.643251,1.96372 1.144867,-1.50052 l 0.335223,-2.3151 h 1.295512 c 0.864117,0 1.292955,0.11013 1.287832,0.33073 -0.0042,0.1819 -0.458963,2.35479 -1.010532,4.82864 l -1.002851,4.49792 -1.200643,0.0791 -1.200643,0.0791 -0.740534,-2.79388 c -0.407294,-1.53664 -0.810203,-2.72422 -0.895353,-2.63907 -0.08515,0.0851 -0.458399,1.30681 -0.829441,2.71479 l -0.674622,2.55996 -1.245934,0.0806 c -0.685263,0.0444 -1.245933,0.023 -1.245933,-0.0474 z M 42.860973,49.90423 41.781408,45.0097 h 1.359689 1.359688 l 0.332907,2.4474 c 0.511276,3.7587 0.566812,3.78326 1.333712,0.58971 l 0.697566,-2.90482 h 1.036976 1.03698 l 0.68941,2.77513 c 0.37918,1.52632 0.7592,2.59327 0.84449,2.371 0.0853,-0.22228 0.31031,-1.50085 0.50002,-2.84128 l 0.34494,-2.43714 h 1.35549 1.35549 l -1.06516,4.89479 -1.06515,4.89479 h -1.20838 -1.20837 l -0.48134,-1.86848 c -0.931174,-3.61473 -1.001289,-3.81216 -1.210577,-3.40872 -0.109109,0.21033 -0.476602,1.48374 -0.816652,2.82981 l -0.618273,2.44739 -1.207165,-2.6e-4 -1.207161,-2.6e-4 z m 15.903553,4.56432 c -0.18459,-0.5634 -1.9917,-8.89884 -1.9917,-9.18688 0,-0.14958 0.58302,-0.27197 1.29559,-0.27197 h 1.29559 l 0.32427,2.28439 c 0.53695,3.78266 0.61063,3.88143 1.15932,1.55405 0.94633,-4.01412 0.85592,-3.83844 1.97537,-3.83844 h 0.99818 l 0.62843,2.66208 c 0.34564,1.46414 0.70245,2.70782 0.7929,2.76372 0.0905,0.0559 0.31877,-0.98858 0.50737,-2.32109 0.1886,-1.33251 0.40179,-2.57618 0.47375,-2.76373 0.0822,-0.21422 0.61401,-0.34098 1.4305,-0.34098 1.21313,0 1.29027,0.0396 1.1588,0.59531 -0.40283,1.70253 -1.9859,8.92875 -1.9859,9.06498 0,0.0871 -0.56067,0.122 -1.24593,0.0776 l -1.24594,-0.0806 -0.67462,-2.55996 c -0.37104,-1.40798 -0.74429,-2.62964 -0.82944,-2.71479 -0.0851,-0.0851 -0.48651,1.0966 -0.89192,2.62611 l -0.7371,2.78093 h -1.16458 c -0.69748,0 -1.20804,-0.13265 -1.27294,-0.33073 z"
         id="path2670"
         sodipodi:nodetypes="cssssscssscscscccscsccccccccsscccssscccccccsssccccssscscscscssscsccssscss" />
    </g>
  </g>
</svg>
